<svg width="126" height="126" viewBox="0 0 126 126" fill="none" xmlns="http://www.w3.org/2000/svg">
<g filter="url(#filter0_ii_62_4)">
<circle cx="63" cy="63" r="63" fill="url(#paint0_linear_62_4)" fill-opacity="0.7"/>
</g>
<g clip-path="url(#clip0_62_4)">
<path d="M70.2839 80.2396C71.8264 79.9273 73.3047 79.6988 74.7447 79.322C82.0282 77.4222 85.9609 72.7034 86.6418 65.2021C86.9041 62.315 87.0309 59.4297 85.8949 56.7048C85.2991 55.2778 84.4201 53.9607 83.5846 52.6489C83.2997 52.2023 83.1208 51.8952 83.2928 51.3353C84.1787 48.4516 83.8643 45.6029 82.9315 42.7838C82.7664 42.2849 82.4555 42.0302 81.9691 42.1436C80.4874 42.4872 78.9536 42.721 77.5587 43.288C76.044 43.9038 74.6735 44.8667 73.2143 45.6273C72.8739 45.8052 72.3944 45.9117 72.0314 45.8244C66.419 44.4707 60.8082 44.4393 55.2028 45.8244C54.6452 45.9623 54.2352 45.9134 53.7558 45.5942C51.6783 44.2108 49.5208 42.9373 47.0559 42.421C43.9813 41.7755 44.3722 41.8575 43.6947 44.4882C43.0989 46.8083 43.1354 49.1372 43.7937 51.4574C43.8771 51.7522 43.7955 52.2145 43.6061 52.45C40.8633 55.8465 39.9531 59.7367 40.3283 64.0316C40.5246 66.2715 40.8616 68.4678 41.6867 70.5629C43.5644 75.3306 47.2088 78.0206 52.0152 79.2784C53.5421 79.6779 55.109 79.9203 56.7314 80.2483C55.5554 81.5444 54.9127 83.0656 54.6226 84.7595C54.5861 84.9741 54.2943 85.2236 54.065 85.3143C50.0176 86.9227 46.3542 86.0452 44.0265 82.1533C42.8488 80.1855 41.2316 78.7463 38.9022 78.3329C38.4088 78.2456 37.8617 78.2945 37.3683 78.4079C36.5884 78.5893 36.479 79.0481 37.0348 79.6517C37.2884 79.9256 37.5751 80.189 37.8947 80.3774C39.7742 81.4904 41.077 83.1389 41.7787 85.1416C43.3543 89.6476 47.6795 91.0798 51.6922 90.7204C52.552 90.6437 53.4049 90.5041 54.4228 90.3733C54.4228 90.7483 54.4211 91.078 54.4228 91.4078C54.4384 93.1819 54.461 94.9543 54.468 96.7267C54.4767 98.6421 53.3806 99.4289 51.5706 98.766C41.8274 95.1915 34.6603 88.716 30.3697 79.2382C23.7515 64.6195 27.0658 47.8864 38.6868 36.8526C44.3548 31.4708 51.1068 28.2104 58.8766 27.2963C71.3157 25.8344 81.8684 29.7822 90.3939 38.939C95.6745 44.6103 98.6658 51.4312 99.6837 59.1505C101.949 76.3093 91.8426 92.9324 75.5663 98.7189C73.5739 99.4271 72.5421 98.7032 72.5508 96.5941C72.5629 93.6006 72.5699 90.6053 72.6046 87.6118C72.6359 84.9096 72.2676 82.3399 70.2839 80.2396Z" fill="#DDFF8A"/>
</g>
<defs>
<filter id="filter0_ii_62_4" x="-20" y="-17" width="146" height="143" filterUnits="userSpaceOnUse" color-interpolation-filters="sRGB">
<feFlood flood-opacity="0" result="BackgroundImageFix"/>
<feBlend mode="normal" in="SourceGraphic" in2="BackgroundImageFix" result="shape"/>
<feColorMatrix in="SourceAlpha" type="matrix" values="0 0 0 0 0 0 0 0 0 0 0 0 0 0 0 0 0 0 127 0" result="hardAlpha"/>
<feMorphology radius="13" operator="erode" in="SourceAlpha" result="effect1_innerShadow_62_4"/>
<feOffset dx="-20" dy="-17"/>
<feGaussianBlur stdDeviation="18.2"/>
<feComposite in2="hardAlpha" operator="arithmetic" k2="-1" k3="1"/>
<feColorMatrix type="matrix" values="0 0 0 0 0 0 0 0 0 0 0 0 0 0 0 0 0 0 0.25 0"/>
<feBlend mode="normal" in2="shape" result="effect1_innerShadow_62_4"/>
<feColorMatrix in="SourceAlpha" type="matrix" values="0 0 0 0 0 0 0 0 0 0 0 0 0 0 0 0 0 0 127 0" result="hardAlpha"/>
<feMorphology radius="10" operator="erode" in="SourceAlpha" result="effect2_innerShadow_62_4"/>
<feOffset/>
<feGaussianBlur stdDeviation="20.75"/>
<feComposite in2="hardAlpha" operator="arithmetic" k2="-1" k3="1"/>
<feColorMatrix type="matrix" values="0 0 0 0 0.560784 0 0 0 0 1 0 0 0 0 0.580392 0 0 0 0.25 0"/>
<feBlend mode="normal" in2="effect1_innerShadow_62_4" result="effect2_innerShadow_62_4"/>
</filter>
<linearGradient id="paint0_linear_62_4" x1="63" y1="0" x2="63" y2="126" gradientUnits="userSpaceOnUse">
<stop stop-color="#57DA42"/>
<stop offset="1" stop-color="#B5B901"/>
</linearGradient>
<clipPath id="clip0_62_4">
<rect width="73" height="72" fill="white" transform="translate(27 27)"/>
</clipPath>
</defs>
</svg>
