<svg width="98" height="98" viewBox="0 0 98 98" fill="none" xmlns="http://www.w3.org/2000/svg">
<g filter="url(#filter0_ii_74_34)">
<circle cx="49" cy="49" r="49" fill="url(#paint0_linear_74_34)" fill-opacity="0.7"/>
</g>
<g clip-path="url(#clip0_74_34)">
<path d="M22 22H77V77H22V22Z" fill="#F7DF1E"/>
<path d="M58.946 64.9689C60.0539 66.7778 61.4952 68.1074 64.0444 68.1074C66.1859 68.1074 67.5539 67.0371 67.5539 65.5582C67.5539 63.786 66.1484 63.1583 63.7913 62.1273L62.4992 61.5729C58.7697 59.984 56.292 57.9935 56.292 53.7856C56.292 49.9094 59.2455 46.9586 63.8611 46.9586C67.1471 46.9586 69.5095 48.1023 71.2119 51.0967L67.1873 53.6808C66.3012 52.092 65.3452 51.466 63.8611 51.466C62.3473 51.466 61.3878 52.4263 61.3878 53.6808C61.3878 55.2313 62.3482 55.859 64.5656 56.8193L65.8577 57.3728C70.2489 59.2559 72.7283 61.1757 72.7283 65.4919C72.7283 70.145 69.073 72.6943 64.164 72.6943C59.3642 72.6943 56.2632 70.407 54.7459 67.409L58.946 64.9689ZM40.6886 65.4168C41.5005 66.8573 42.2391 68.0751 44.0148 68.0751C45.7128 68.0751 46.784 67.4108 46.784 64.8275V47.2537H51.9523V64.8973C51.9523 70.2489 48.8147 72.6846 44.2348 72.6846C40.0967 72.6846 37.7003 70.5431 36.4816 67.9638L40.6886 65.4168Z" fill="black"/>
</g>
<defs>
<filter id="filter0_ii_74_34" x="-20" y="-17" width="118" height="115" filterUnits="userSpaceOnUse" color-interpolation-filters="sRGB">
<feFlood flood-opacity="0" result="BackgroundImageFix"/>
<feBlend mode="normal" in="SourceGraphic" in2="BackgroundImageFix" result="shape"/>
<feColorMatrix in="SourceAlpha" type="matrix" values="0 0 0 0 0 0 0 0 0 0 0 0 0 0 0 0 0 0 127 0" result="hardAlpha"/>
<feMorphology radius="13" operator="erode" in="SourceAlpha" result="effect1_innerShadow_74_34"/>
<feOffset dx="-20" dy="-17"/>
<feGaussianBlur stdDeviation="18.2"/>
<feComposite in2="hardAlpha" operator="arithmetic" k2="-1" k3="1"/>
<feColorMatrix type="matrix" values="0 0 0 0 0 0 0 0 0 0 0 0 0 0 0 0 0 0 0.25 0"/>
<feBlend mode="normal" in2="shape" result="effect1_innerShadow_74_34"/>
<feColorMatrix in="SourceAlpha" type="matrix" values="0 0 0 0 0 0 0 0 0 0 0 0 0 0 0 0 0 0 127 0" result="hardAlpha"/>
<feMorphology radius="10" operator="erode" in="SourceAlpha" result="effect2_innerShadow_74_34"/>
<feOffset/>
<feGaussianBlur stdDeviation="20.75"/>
<feComposite in2="hardAlpha" operator="arithmetic" k2="-1" k3="1"/>
<feColorMatrix type="matrix" values="0 0 0 0 0.560784 0 0 0 0 1 0 0 0 0 0.580392 0 0 0 0.25 0"/>
<feBlend mode="normal" in2="effect1_innerShadow_74_34" result="effect2_innerShadow_74_34"/>
</filter>
<linearGradient id="paint0_linear_74_34" x1="49" y1="0" x2="49" y2="98" gradientUnits="userSpaceOnUse">
<stop stop-color="#57DA42"/>
<stop offset="1" stop-color="#B5B901"/>
</linearGradient>
<clipPath id="clip0_74_34">
<rect x="22" y="22" width="55" height="55" rx="3" fill="white"/>
</clipPath>
</defs>
</svg>
