<svg width="242" height="242" viewBox="0 0 242 242" fill="none" xmlns="http://www.w3.org/2000/svg">
<g filter="url(#filter0_ddii_61_4)">
<circle cx="121" cy="121" r="63" fill="url(#paint0_linear_61_4)" fill-opacity="0.7" shape-rendering="crispEdges"/>
</g>
<g clip-path="url(#clip0_61_4)">
<path d="M92.0053 95.7803C92.0318 95.0862 92.3099 94.4769 92.6782 93.91C93.2742 92.9987 94.1193 92.4159 95.1684 92.1351C95.3829 92.0795 95.6081 92.0742 95.8306 92.0477C95.9075 92.0344 95.9843 92.0212 96.0638 92.0106C96.1883 92.0079 96.3101 92 96.432 92C112.788 92 129.143 92 145.499 92C145.621 92 145.743 92.0079 145.865 92.0106C145.987 92.0212 146.106 92.0318 146.228 92.0424C148.373 92.2729 149.921 94.0319 149.989 96.032C149.992 96.0797 149.997 96.1247 150 96.1724C149.997 96.2942 149.989 96.4161 149.989 96.538C149.989 112.849 149.989 129.159 149.989 145.47C149.989 145.584 149.997 145.695 150 145.809C149.897 148.172 148.283 149.558 146.564 149.897C146.281 149.952 145.987 149.966 145.698 149.997C145.584 149.995 145.473 149.987 145.359 149.987C129.114 149.987 112.87 149.987 96.6227 149.987C96.5088 149.987 96.3976 149.995 96.2836 149.997C94.8001 149.947 93.5868 149.367 92.7259 148.138C92.3205 147.56 92.0424 146.922 92.0026 146.201C92.0053 146.124 92.0053 146.05 92.0079 145.973C92.0079 145.865 92 145.753 92 145.64C92 129.199 92 112.759 92 96.3181C92 96.1962 92.0079 96.0744 92.0132 95.9525C92.0106 95.8942 92.0079 95.8386 92.0053 95.7803ZM132.86 141.406C132.969 141.422 133.077 141.454 133.189 141.454C135.819 141.457 138.447 141.457 141.078 141.454C141.184 141.454 141.292 141.414 141.398 141.393C141.404 141.377 141.409 141.361 141.414 141.343C141.43 141.223 141.457 141.102 141.457 140.982C141.459 138.055 141.459 135.13 141.457 132.203C141.457 132.084 141.427 131.962 141.414 131.843C141.409 131.824 141.404 131.806 141.398 131.79C141.401 129.647 141.404 127.504 141.401 125.363C141.401 125.016 141.366 124.672 141.348 124.325C141.329 124.121 141.308 123.919 141.295 123.715C141.263 123.26 141.268 122.796 141.2 122.346C141.067 121.501 140.913 120.656 140.725 119.824C140.344 118.139 139.602 116.634 138.346 115.421C136.919 114.041 135.141 113.437 133.22 113.201C132.434 113.106 131.636 113.103 130.842 113.084C129.734 113.061 128.661 113.267 127.623 113.649C125.628 114.38 124.044 115.617 122.979 117.479C122.942 117.389 122.873 117.302 122.873 117.212C122.865 116.168 122.87 115.122 122.865 114.078C122.865 113.972 122.825 113.869 122.807 113.763C120.078 113.763 117.35 113.76 114.621 113.76C114.6 113.869 114.56 113.975 114.56 114.083C114.557 123.08 114.557 132.076 114.56 141.072C114.56 141.181 114.594 141.29 114.616 141.398V141.396C114.724 141.414 114.83 141.451 114.939 141.451C117.569 141.454 120.197 141.454 122.828 141.451C122.937 141.451 123.045 141.419 123.154 141.404L123.148 141.398C123.167 141.282 123.204 141.168 123.204 141.051C123.207 136.545 123.207 132.042 123.207 127.535C123.207 127.218 123.207 126.897 123.204 126.579C123.228 126.282 123.239 125.983 123.278 125.689C123.403 124.741 123.567 123.8 124.025 122.942C124.388 122.264 124.87 121.702 125.535 121.302C126.563 120.682 127.697 120.579 128.849 120.674C129.371 120.717 129.909 120.841 130.391 121.045C131.517 121.522 132.071 122.489 132.418 123.607C132.725 124.595 132.736 125.62 132.818 126.64C132.815 127.045 132.812 127.448 132.812 127.853C132.812 132.256 132.812 136.659 132.815 141.059C132.815 141.173 132.852 141.287 132.873 141.401L132.86 141.406ZM109.18 141.401C109.195 141.303 109.233 141.205 109.233 141.107C109.235 132.089 109.235 123.072 109.233 114.054C109.233 113.956 109.193 113.861 109.172 113.763C107.413 113.76 105.651 113.755 103.892 113.755C102.808 113.755 101.728 113.76 100.644 113.765C100.628 113.757 100.61 113.755 100.591 113.76C100.57 113.887 100.53 114.014 100.53 114.141C100.528 123.09 100.528 132.036 100.53 140.985C100.53 141.104 100.557 141.226 100.57 141.345C100.594 141.364 100.618 141.382 100.641 141.398L100.636 141.412C100.737 141.425 100.837 141.451 100.938 141.451C103.585 141.454 106.234 141.454 108.88 141.451C108.984 141.454 109.082 141.419 109.18 141.401ZM109.855 104.922C109.935 102.483 107.802 100.04 104.967 100.006C102.077 99.9712 99.8997 102.35 99.905 104.965C99.9129 107.648 102.019 109.95 104.888 109.961C107.601 109.974 109.911 107.765 109.855 104.922Z" fill="#DDFF8A"/>
</g>
<defs>
<filter id="filter0_ddii_61_4" x="0.5" y="0.5" width="241" height="241" filterUnits="userSpaceOnUse" color-interpolation-filters="sRGB">
<feFlood flood-opacity="0" result="BackgroundImageFix"/>
<feColorMatrix in="SourceAlpha" type="matrix" values="0 0 0 0 0 0 0 0 0 0 0 0 0 0 0 0 0 0 127 0" result="hardAlpha"/>
<feOffset dx="11" dy="10"/>
<feGaussianBlur stdDeviation="10.85"/>
<feComposite in2="hardAlpha" operator="out"/>
<feColorMatrix type="matrix" values="0 0 0 0 0 0 0 0 0 0 0 0 0 0 0 0 0 0 0.25 0"/>
<feBlend mode="normal" in2="BackgroundImageFix" result="effect1_dropShadow_61_4"/>
<feColorMatrix in="SourceAlpha" type="matrix" values="0 0 0 0 0 0 0 0 0 0 0 0 0 0 0 0 0 0 127 0" result="hardAlpha"/>
<feMorphology radius="4" operator="dilate" in="SourceAlpha" result="effect2_dropShadow_61_4"/>
<feOffset/>
<feGaussianBlur stdDeviation="26.75"/>
<feComposite in2="hardAlpha" operator="out"/>
<feColorMatrix type="matrix" values="0 0 0 0 0.5625 0 0 0 0 1 0 0 0 0 0.58 0 0 0 0.25 0"/>
<feBlend mode="normal" in2="effect1_dropShadow_61_4" result="effect2_dropShadow_61_4"/>
<feBlend mode="normal" in="SourceGraphic" in2="effect2_dropShadow_61_4" result="shape"/>
<feColorMatrix in="SourceAlpha" type="matrix" values="0 0 0 0 0 0 0 0 0 0 0 0 0 0 0 0 0 0 127 0" result="hardAlpha"/>
<feMorphology radius="13" operator="erode" in="SourceAlpha" result="effect3_innerShadow_61_4"/>
<feOffset dx="-20" dy="-17"/>
<feGaussianBlur stdDeviation="18.2"/>
<feComposite in2="hardAlpha" operator="arithmetic" k2="-1" k3="1"/>
<feColorMatrix type="matrix" values="0 0 0 0 0 0 0 0 0 0 0 0 0 0 0 0 0 0 0.25 0"/>
<feBlend mode="normal" in2="shape" result="effect3_innerShadow_61_4"/>
<feColorMatrix in="SourceAlpha" type="matrix" values="0 0 0 0 0 0 0 0 0 0 0 0 0 0 0 0 0 0 127 0" result="hardAlpha"/>
<feMorphology radius="10" operator="erode" in="SourceAlpha" result="effect4_innerShadow_61_4"/>
<feOffset/>
<feGaussianBlur stdDeviation="20.75"/>
<feComposite in2="hardAlpha" operator="arithmetic" k2="-1" k3="1"/>
<feColorMatrix type="matrix" values="0 0 0 0 0.560784 0 0 0 0 1 0 0 0 0 0.580392 0 0 0 0.25 0"/>
<feBlend mode="normal" in2="effect3_innerShadow_61_4" result="effect4_innerShadow_61_4"/>
</filter>
<linearGradient id="paint0_linear_61_4" x1="121" y1="58" x2="121" y2="184" gradientUnits="userSpaceOnUse">
<stop stop-color="#57DA42"/>
<stop offset="1" stop-color="#B5B901"/>
</linearGradient>
<clipPath id="clip0_61_4">
<rect width="58" height="58" fill="white" transform="translate(92 92)"/>
</clipPath>
</defs>
</svg>
