<svg width="98" height="98" viewBox="0 0 98 98" fill="none" xmlns="http://www.w3.org/2000/svg">
<g filter="url(#filter0_ii_74_39)">
<circle cx="49" cy="49" r="49" fill="url(#paint0_linear_74_39)" fill-opacity="0.7"/>
</g>
<g clip-path="url(#clip0_74_39)">
<path d="M49 54.813C52.4458 54.813 55.2391 51.9873 55.2391 48.5016C55.2391 45.0159 52.4458 42.1902 49 42.1902C45.5542 42.1902 42.7609 45.0159 42.7609 48.5016C42.7609 51.9873 45.5542 54.813 49 54.813Z" fill="#61DAFB"/>
<path d="M49 61.4322C67.4895 61.4322 82.4782 55.643 82.4782 48.5016C82.4782 41.3602 67.4895 35.5709 49 35.5709C30.5105 35.5709 15.5217 41.3602 15.5217 48.5016C15.5217 55.643 30.5105 61.4322 49 61.4322Z" stroke="#61DAFB" stroke-width="3"/>
<path d="M37.9299 54.9669C47.1747 71.1647 59.6253 81.4011 65.7391 77.8304C71.853 74.2597 69.3148 58.2341 60.0701 42.0362C50.8253 25.8384 38.3747 15.602 32.2609 19.1727C26.147 22.7434 28.6852 38.769 37.9299 54.9669Z" stroke="#61DAFB" stroke-width="3"/>
<path d="M37.9299 42.0362C28.6852 58.2341 26.1471 74.2597 32.2609 77.8304C38.3747 81.4011 50.8253 71.1647 60.0701 54.9669C69.3148 38.769 71.853 22.7434 65.7391 19.1727C59.6253 15.602 47.1747 25.8384 37.9299 42.0362Z" stroke="#61DAFB" stroke-width="3"/>
</g>
<defs>
<filter id="filter0_ii_74_39" x="-20" y="-17" width="118" height="115" filterUnits="userSpaceOnUse" color-interpolation-filters="sRGB">
<feFlood flood-opacity="0" result="BackgroundImageFix"/>
<feBlend mode="normal" in="SourceGraphic" in2="BackgroundImageFix" result="shape"/>
<feColorMatrix in="SourceAlpha" type="matrix" values="0 0 0 0 0 0 0 0 0 0 0 0 0 0 0 0 0 0 127 0" result="hardAlpha"/>
<feMorphology radius="13" operator="erode" in="SourceAlpha" result="effect1_innerShadow_74_39"/>
<feOffset dx="-20" dy="-17"/>
<feGaussianBlur stdDeviation="18.2"/>
<feComposite in2="hardAlpha" operator="arithmetic" k2="-1" k3="1"/>
<feColorMatrix type="matrix" values="0 0 0 0 0 0 0 0 0 0 0 0 0 0 0 0 0 0 0.25 0"/>
<feBlend mode="normal" in2="shape" result="effect1_innerShadow_74_39"/>
<feColorMatrix in="SourceAlpha" type="matrix" values="0 0 0 0 0 0 0 0 0 0 0 0 0 0 0 0 0 0 127 0" result="hardAlpha"/>
<feMorphology radius="10" operator="erode" in="SourceAlpha" result="effect2_innerShadow_74_39"/>
<feOffset/>
<feGaussianBlur stdDeviation="20.75"/>
<feComposite in2="hardAlpha" operator="arithmetic" k2="-1" k3="1"/>
<feColorMatrix type="matrix" values="0 0 0 0 0.560784 0 0 0 0 1 0 0 0 0 0.580392 0 0 0 0.25 0"/>
<feBlend mode="normal" in2="effect1_innerShadow_74_39" result="effect2_innerShadow_74_39"/>
</filter>
<linearGradient id="paint0_linear_74_39" x1="49" y1="0" x2="49" y2="98" gradientUnits="userSpaceOnUse">
<stop stop-color="#57DA42"/>
<stop offset="1" stop-color="#B5B901"/>
</linearGradient>
<clipPath id="clip0_74_39">
<rect width="70" height="63" fill="white" transform="translate(14 17)"/>
</clipPath>
</defs>
</svg>
