<svg width="562" height="571" viewBox="0 0 562 571" fill="none" xmlns="http://www.w3.org/2000/svg">
<path d="M109.828 297.356L106.419 281.102L157.624 270.36L161.034 286.614L109.828 297.356ZM141.274 249.464L159.501 245.64L173.298 311.409L155.07 315.232L141.274 249.464ZM97.1148 258.727L115.342 254.904L129.139 320.672L110.911 324.496L97.1148 258.727ZM222.973 301.969C217.649 303.086 212.855 303.143 208.59 302.142C204.375 301.064 200.886 299.082 198.122 296.196C195.346 293.247 193.471 289.455 192.499 284.82C191.514 280.122 191.675 275.903 192.983 272.163C194.278 268.36 196.614 265.156 199.991 262.552C203.368 259.947 207.687 258.093 212.949 256.989C218.21 255.885 222.803 255.804 226.728 256.747C230.653 257.689 233.897 259.591 236.46 262.454C239.009 265.254 240.776 269.004 241.762 273.701C241.919 274.453 242.046 275.211 242.141 275.976C242.285 276.665 242.385 277.298 242.441 277.875L202.134 286.33L200.38 277.968L225.842 272.627L223.272 277.678C223.48 277.111 223.644 276.488 223.763 275.809C223.882 275.13 223.896 274.572 223.804 274.133C223.436 272.38 222.814 270.973 221.938 269.915C221.111 268.78 220.069 268.018 218.81 267.628C217.6 267.162 216.244 267.087 214.741 267.403C212.862 267.797 211.388 268.564 210.319 269.704C209.25 270.843 208.593 272.387 208.348 274.335C208.089 276.22 208.249 278.541 208.827 281.297C209.277 283.753 210.024 285.754 211.068 287.301C212.112 288.847 213.39 289.952 214.902 290.616C216.402 291.217 218.122 291.314 220.064 290.907C222.444 290.407 224.363 289.58 225.821 288.424C227.328 287.192 228.38 285.663 228.978 283.838L244.246 283.676C242.862 288.609 240.395 292.592 236.846 295.625C233.36 298.646 228.736 300.76 222.973 301.969ZM253.517 218.071L269.772 214.661L285.145 287.946L268.891 291.355L253.517 218.071ZM294.127 209.552L310.381 206.142L325.755 279.427L309.501 282.837L294.127 209.552ZM343.322 253.181C342.35 248.546 342.605 244.307 344.088 240.465C345.571 236.623 348.032 233.392 351.472 230.774C354.961 228.081 359.117 226.228 363.94 225.216C368.826 224.191 373.376 224.218 377.591 225.295C381.793 226.31 385.345 228.279 388.247 231.201C391.211 234.111 393.18 237.883 394.152 242.518C395.111 247.091 394.818 251.304 393.273 255.16C391.79 259.002 389.335 262.264 385.909 264.944C382.469 267.562 378.306 269.384 373.421 270.409C368.597 271.42 364.054 271.425 359.789 270.423C355.574 269.346 352.016 267.346 349.114 264.423C346.212 261.501 344.282 257.753 343.322 253.181ZM360.046 249.673C360.467 251.677 361.204 253.321 362.258 254.604C363.361 255.811 364.649 256.652 366.122 257.128C367.582 257.541 369.095 257.583 370.661 257.255C372.227 256.926 373.595 256.28 374.766 255.315C375.924 254.287 376.765 252.999 377.291 251.45C377.803 249.839 377.849 248.031 377.428 246.026C377.008 244.022 376.246 242.416 375.142 241.209C374.026 239.939 372.731 239.066 371.258 238.591C369.785 238.115 368.265 238.041 366.7 238.37C365.134 238.698 363.772 239.376 362.614 240.404C361.456 241.432 360.622 242.751 360.11 244.363C359.647 245.898 359.626 247.668 360.046 249.673ZM408.616 193.382L428.628 189.184L434.312 233.112L421.065 235.892L408.616 193.382ZM421.072 252.761C420.507 250.068 420.993 247.71 422.531 245.687C424.055 243.602 426.258 242.257 429.139 241.652C432.083 241.035 434.641 241.381 436.812 242.691C439.033 243.926 440.426 245.889 440.991 248.583C441.543 251.214 441.05 253.54 439.512 255.563C438.051 257.635 435.848 258.98 432.904 259.598C430.023 260.202 427.465 259.856 425.231 258.559C423.01 257.325 421.624 255.392 421.072 252.761Z" fill="white"/>
<g filter="url(#filter0_bddiii_23_21)">
<circle cx="260" cy="260" r="202" fill="url(#paint0_linear_23_21)" fill-opacity="0.75" shape-rendering="crispEdges"/>
</g>
<path d="M107.828 286.356L104.419 270.102L155.624 259.36L159.034 275.614L107.828 286.356ZM139.274 238.464L157.501 234.64L171.298 300.409L153.07 304.232L139.274 238.464ZM95.1148 247.727L113.342 243.904L127.139 309.672L108.911 313.496L95.1148 247.727ZM220.973 290.969C215.649 292.086 210.855 292.143 206.59 291.142C202.375 290.064 198.886 288.082 196.122 285.196C193.346 282.247 191.471 278.455 190.499 273.82C189.514 269.122 189.675 264.903 190.983 261.163C192.278 257.36 194.614 254.156 197.991 251.552C201.368 248.947 205.687 247.093 210.949 245.989C216.21 244.885 220.803 244.804 224.728 245.747C228.653 246.689 231.897 248.591 234.46 251.454C237.009 254.254 238.776 258.004 239.762 262.701C239.919 263.453 240.046 264.211 240.141 264.976C240.285 265.665 240.385 266.298 240.441 266.875L200.134 275.33L198.38 266.968L223.842 261.627L221.272 266.678C221.48 266.111 221.644 265.488 221.763 264.809C221.882 264.13 221.896 263.572 221.804 263.133C221.436 261.38 220.814 259.973 219.938 258.915C219.111 257.78 218.069 257.018 216.81 256.628C215.6 256.162 214.244 256.087 212.741 256.403C210.862 256.797 209.388 257.564 208.319 258.704C207.25 259.843 206.593 261.387 206.348 263.335C206.089 265.22 206.249 267.541 206.827 270.297C207.277 272.753 208.024 274.754 209.068 276.301C210.112 277.847 211.39 278.952 212.902 279.616C214.402 280.217 216.122 280.314 218.064 279.907C220.444 279.407 222.363 278.58 223.821 277.424C225.328 276.192 226.38 274.663 226.978 272.838L242.246 272.676C240.862 277.609 238.395 281.592 234.846 284.625C231.36 287.646 226.736 289.76 220.973 290.969ZM251.517 207.071L267.772 203.661L283.145 276.946L266.891 280.355L251.517 207.071ZM292.127 198.552L308.381 195.142L323.755 268.427L307.501 271.837L292.127 198.552ZM341.322 242.181C340.35 237.546 340.605 233.307 342.088 229.465C343.571 225.623 346.032 222.392 349.472 219.774C352.961 217.081 357.117 215.228 361.94 214.216C366.826 213.191 371.376 213.218 375.591 214.295C379.793 215.31 383.345 217.279 386.247 220.201C389.211 223.111 391.18 226.883 392.152 231.518C393.111 236.091 392.818 240.304 391.273 244.16C389.79 248.002 387.335 251.264 383.909 253.944C380.469 256.562 376.306 258.384 371.421 259.409C366.597 260.42 362.054 260.425 357.789 259.423C353.574 258.346 350.016 256.346 347.114 253.423C344.212 250.501 342.282 246.753 341.322 242.181ZM358.046 238.673C358.467 240.677 359.204 242.321 360.258 243.604C361.361 244.811 362.649 245.652 364.122 246.128C365.582 246.541 367.095 246.583 368.661 246.255C370.227 245.926 371.595 245.28 372.766 244.315C373.924 243.287 374.765 241.999 375.291 240.45C375.803 238.839 375.849 237.031 375.428 235.026C375.008 233.022 374.246 231.416 373.142 230.209C372.026 228.939 370.731 228.066 369.258 227.591C367.785 227.115 366.265 227.041 364.7 227.37C363.134 227.698 361.772 228.376 360.614 229.404C359.456 230.432 358.622 231.751 358.11 233.363C357.647 234.898 357.626 236.668 358.046 238.673ZM406.616 182.382L426.628 178.184L432.312 222.112L419.065 224.892L406.616 182.382ZM419.072 241.761C418.507 239.068 418.993 236.71 420.531 234.687C422.055 232.602 424.258 231.257 427.139 230.652C430.083 230.035 432.641 230.381 434.812 231.691C437.033 232.926 438.426 234.889 438.991 237.583C439.543 240.214 439.05 242.54 437.512 244.563C436.051 246.635 433.848 247.98 430.904 248.598C428.023 249.202 425.465 248.856 423.231 247.559C421.01 246.325 419.624 244.392 419.072 241.761Z" fill="#DDFF8A"/>
<g filter="url(#filter1_ddii_23_21)">
<circle cx="462" cy="429" r="42" fill="url(#paint1_linear_23_21)" fill-opacity="0.7" shape-rendering="crispEdges"/>
</g>
<g filter="url(#filter2_ddii_23_21)">
<circle cx="378.5" cy="487.5" r="25.5" fill="url(#paint2_linear_23_21)" fill-opacity="0.7" shape-rendering="crispEdges"/>
</g>
<defs>
<filter id="filter0_bddiii_23_21" x="0.5" y="0.5" width="519" height="519" filterUnits="userSpaceOnUse" color-interpolation-filters="sRGB">
<feFlood flood-opacity="0" result="BackgroundImageFix"/>
<feGaussianBlur in="BackgroundImageFix" stdDeviation="4"/>
<feComposite in2="SourceAlpha" operator="in" result="effect1_backgroundBlur_23_21"/>
<feColorMatrix in="SourceAlpha" type="matrix" values="0 0 0 0 0 0 0 0 0 0 0 0 0 0 0 0 0 0 127 0" result="hardAlpha"/>
<feOffset dx="11" dy="10"/>
<feGaussianBlur stdDeviation="10.85"/>
<feComposite in2="hardAlpha" operator="out"/>
<feColorMatrix type="matrix" values="0 0 0 0 0 0 0 0 0 0 0 0 0 0 0 0 0 0 0.25 0"/>
<feBlend mode="normal" in2="effect1_backgroundBlur_23_21" result="effect2_dropShadow_23_21"/>
<feColorMatrix in="SourceAlpha" type="matrix" values="0 0 0 0 0 0 0 0 0 0 0 0 0 0 0 0 0 0 127 0" result="hardAlpha"/>
<feMorphology radius="4" operator="dilate" in="SourceAlpha" result="effect3_dropShadow_23_21"/>
<feOffset/>
<feGaussianBlur stdDeviation="26.75"/>
<feComposite in2="hardAlpha" operator="out"/>
<feColorMatrix type="matrix" values="0 0 0 0 0.5625 0 0 0 0 1 0 0 0 0 0.58 0 0 0 0.25 0"/>
<feBlend mode="normal" in2="effect2_dropShadow_23_21" result="effect3_dropShadow_23_21"/>
<feBlend mode="normal" in="SourceGraphic" in2="effect3_dropShadow_23_21" result="shape"/>
<feColorMatrix in="SourceAlpha" type="matrix" values="0 0 0 0 0 0 0 0 0 0 0 0 0 0 0 0 0 0 127 0" result="hardAlpha"/>
<feMorphology radius="7" operator="dilate" in="SourceAlpha" result="effect4_innerShadow_23_21"/>
<feOffset dx="16" dy="12"/>
<feGaussianBlur stdDeviation="8.15"/>
<feComposite in2="hardAlpha" operator="arithmetic" k2="-1" k3="1"/>
<feColorMatrix type="matrix" values="0 0 0 0 1 0 0 0 0 1 0 0 0 0 1 0 0 0 0.25 0"/>
<feBlend mode="normal" in2="shape" result="effect4_innerShadow_23_21"/>
<feColorMatrix in="SourceAlpha" type="matrix" values="0 0 0 0 0 0 0 0 0 0 0 0 0 0 0 0 0 0 127 0" result="hardAlpha"/>
<feMorphology radius="13" operator="erode" in="SourceAlpha" result="effect5_innerShadow_23_21"/>
<feOffset dx="-20" dy="-17"/>
<feGaussianBlur stdDeviation="18.2"/>
<feComposite in2="hardAlpha" operator="arithmetic" k2="-1" k3="1"/>
<feColorMatrix type="matrix" values="0 0 0 0 0 0 0 0 0 0 0 0 0 0 0 0 0 0 0.25 0"/>
<feBlend mode="normal" in2="effect4_innerShadow_23_21" result="effect5_innerShadow_23_21"/>
<feColorMatrix in="SourceAlpha" type="matrix" values="0 0 0 0 0 0 0 0 0 0 0 0 0 0 0 0 0 0 127 0" result="hardAlpha"/>
<feMorphology radius="10" operator="erode" in="SourceAlpha" result="effect6_innerShadow_23_21"/>
<feOffset/>
<feGaussianBlur stdDeviation="20.75"/>
<feComposite in2="hardAlpha" operator="arithmetic" k2="-1" k3="1"/>
<feColorMatrix type="matrix" values="0 0 0 0 0.560784 0 0 0 0 1 0 0 0 0 0.580392 0 0 0 0.25 0"/>
<feBlend mode="normal" in2="effect5_innerShadow_23_21" result="effect6_innerShadow_23_21"/>
</filter>
<filter id="filter1_ddii_23_21" x="362.5" y="329.5" width="199" height="199" filterUnits="userSpaceOnUse" color-interpolation-filters="sRGB">
<feFlood flood-opacity="0" result="BackgroundImageFix"/>
<feColorMatrix in="SourceAlpha" type="matrix" values="0 0 0 0 0 0 0 0 0 0 0 0 0 0 0 0 0 0 127 0" result="hardAlpha"/>
<feOffset dx="11" dy="10"/>
<feGaussianBlur stdDeviation="10.85"/>
<feComposite in2="hardAlpha" operator="out"/>
<feColorMatrix type="matrix" values="0 0 0 0 0 0 0 0 0 0 0 0 0 0 0 0 0 0 0.25 0"/>
<feBlend mode="normal" in2="BackgroundImageFix" result="effect1_dropShadow_23_21"/>
<feColorMatrix in="SourceAlpha" type="matrix" values="0 0 0 0 0 0 0 0 0 0 0 0 0 0 0 0 0 0 127 0" result="hardAlpha"/>
<feMorphology radius="4" operator="dilate" in="SourceAlpha" result="effect2_dropShadow_23_21"/>
<feOffset/>
<feGaussianBlur stdDeviation="26.75"/>
<feComposite in2="hardAlpha" operator="out"/>
<feColorMatrix type="matrix" values="0 0 0 0 0.5625 0 0 0 0 1 0 0 0 0 0.58 0 0 0 0.25 0"/>
<feBlend mode="normal" in2="effect1_dropShadow_23_21" result="effect2_dropShadow_23_21"/>
<feBlend mode="normal" in="SourceGraphic" in2="effect2_dropShadow_23_21" result="shape"/>
<feColorMatrix in="SourceAlpha" type="matrix" values="0 0 0 0 0 0 0 0 0 0 0 0 0 0 0 0 0 0 127 0" result="hardAlpha"/>
<feMorphology radius="13" operator="erode" in="SourceAlpha" result="effect3_innerShadow_23_21"/>
<feOffset dx="-20" dy="-17"/>
<feGaussianBlur stdDeviation="18.2"/>
<feComposite in2="hardAlpha" operator="arithmetic" k2="-1" k3="1"/>
<feColorMatrix type="matrix" values="0 0 0 0 0 0 0 0 0 0 0 0 0 0 0 0 0 0 0.25 0"/>
<feBlend mode="normal" in2="shape" result="effect3_innerShadow_23_21"/>
<feColorMatrix in="SourceAlpha" type="matrix" values="0 0 0 0 0 0 0 0 0 0 0 0 0 0 0 0 0 0 127 0" result="hardAlpha"/>
<feMorphology radius="10" operator="erode" in="SourceAlpha" result="effect4_innerShadow_23_21"/>
<feOffset/>
<feGaussianBlur stdDeviation="20.75"/>
<feComposite in2="hardAlpha" operator="arithmetic" k2="-1" k3="1"/>
<feColorMatrix type="matrix" values="0 0 0 0 0.560784 0 0 0 0 1 0 0 0 0 0.580392 0 0 0 0.25 0"/>
<feBlend mode="normal" in2="effect3_innerShadow_23_21" result="effect4_innerShadow_23_21"/>
</filter>
<filter id="filter2_ddii_23_21" x="295.5" y="404.5" width="166" height="166" filterUnits="userSpaceOnUse" color-interpolation-filters="sRGB">
<feFlood flood-opacity="0" result="BackgroundImageFix"/>
<feColorMatrix in="SourceAlpha" type="matrix" values="0 0 0 0 0 0 0 0 0 0 0 0 0 0 0 0 0 0 127 0" result="hardAlpha"/>
<feOffset dx="11" dy="10"/>
<feGaussianBlur stdDeviation="10.85"/>
<feComposite in2="hardAlpha" operator="out"/>
<feColorMatrix type="matrix" values="0 0 0 0 0 0 0 0 0 0 0 0 0 0 0 0 0 0 0.25 0"/>
<feBlend mode="normal" in2="BackgroundImageFix" result="effect1_dropShadow_23_21"/>
<feColorMatrix in="SourceAlpha" type="matrix" values="0 0 0 0 0 0 0 0 0 0 0 0 0 0 0 0 0 0 127 0" result="hardAlpha"/>
<feMorphology radius="4" operator="dilate" in="SourceAlpha" result="effect2_dropShadow_23_21"/>
<feOffset/>
<feGaussianBlur stdDeviation="26.75"/>
<feComposite in2="hardAlpha" operator="out"/>
<feColorMatrix type="matrix" values="0 0 0 0 0.5625 0 0 0 0 1 0 0 0 0 0.58 0 0 0 0.25 0"/>
<feBlend mode="normal" in2="effect1_dropShadow_23_21" result="effect2_dropShadow_23_21"/>
<feBlend mode="normal" in="SourceGraphic" in2="effect2_dropShadow_23_21" result="shape"/>
<feColorMatrix in="SourceAlpha" type="matrix" values="0 0 0 0 0 0 0 0 0 0 0 0 0 0 0 0 0 0 127 0" result="hardAlpha"/>
<feMorphology radius="13" operator="erode" in="SourceAlpha" result="effect3_innerShadow_23_21"/>
<feOffset dx="-20" dy="-17"/>
<feGaussianBlur stdDeviation="18.2"/>
<feComposite in2="hardAlpha" operator="arithmetic" k2="-1" k3="1"/>
<feColorMatrix type="matrix" values="0 0 0 0 0 0 0 0 0 0 0 0 0 0 0 0 0 0 0.25 0"/>
<feBlend mode="normal" in2="shape" result="effect3_innerShadow_23_21"/>
<feColorMatrix in="SourceAlpha" type="matrix" values="0 0 0 0 0 0 0 0 0 0 0 0 0 0 0 0 0 0 127 0" result="hardAlpha"/>
<feMorphology radius="10" operator="erode" in="SourceAlpha" result="effect4_innerShadow_23_21"/>
<feOffset/>
<feGaussianBlur stdDeviation="20.75"/>
<feComposite in2="hardAlpha" operator="arithmetic" k2="-1" k3="1"/>
<feColorMatrix type="matrix" values="0 0 0 0 0.560784 0 0 0 0 1 0 0 0 0 0.580392 0 0 0 0.25 0"/>
<feBlend mode="normal" in2="effect3_innerShadow_23_21" result="effect4_innerShadow_23_21"/>
</filter>
<linearGradient id="paint0_linear_23_21" x1="260" y1="58" x2="260" y2="462" gradientUnits="userSpaceOnUse">
<stop stop-color="#57DA42"/>
<stop offset="1" stop-color="#B5B901"/>
</linearGradient>
<linearGradient id="paint1_linear_23_21" x1="462" y1="387" x2="462" y2="471" gradientUnits="userSpaceOnUse">
<stop stop-color="#57DA42"/>
<stop offset="1" stop-color="#B5B901"/>
</linearGradient>
<linearGradient id="paint2_linear_23_21" x1="378.5" y1="462" x2="378.5" y2="513" gradientUnits="userSpaceOnUse">
<stop stop-color="#57DA42"/>
<stop offset="1" stop-color="#B5B901"/>
</linearGradient>
</defs>
</svg>
