<svg width="98" height="98" viewBox="0 0 98 98" fill="none" xmlns="http://www.w3.org/2000/svg">
<g filter="url(#filter0_ii_74_4)">
<circle cx="49" cy="49" r="49" fill="url(#paint0_linear_74_4)" fill-opacity="0.7"/>
</g>
<g clip-path="url(#clip0_74_4)">
<mask id="mask0_74_4" style="mask-type:luminance" maskUnits="userSpaceOnUse" x="18" y="26" width="61" height="45">
<path d="M18 26.0026H79V70.9983H18V26.0026Z" fill="white"/>
</mask>
<g mask="url(#mask0_74_4)">
<path d="M79 47.4962V49.5048C78.9809 49.6137 78.9568 49.7207 78.9443 49.8291C78.8403 50.7028 78.7731 51.5821 78.6295 52.4492C78.1606 55.2677 77.1469 57.8873 75.6407 60.3096C73.3534 63.9872 70.2612 66.7916 66.3753 68.7067C64.1325 69.8173 61.7143 70.531 59.228 70.8161C58.6757 70.8799 58.1239 70.9371 57.5717 70.9979H36.1419C36.0339 70.9778 35.9265 70.9457 35.8175 70.9391C33.6567 70.8031 31.5776 70.3105 29.596 69.4433C25.2818 67.5553 22.0652 64.4953 19.9595 60.2835C19.0291 58.4257 18.4269 56.4209 18.1797 54.3578C18.119 53.8562 18.0597 53.3551 18 52.854V50.9052C18.0206 50.7972 18.0522 50.6893 18.0587 50.5808C18.1707 48.7084 18.5548 46.8902 19.231 45.1428C21.051 40.4408 24.2235 36.9535 28.732 34.6965C31.0711 33.525 33.5643 32.9094 36.172 32.7728C37.4487 32.7065 38.7244 32.7778 39.9936 32.9481C40.1086 32.9636 40.2743 32.9124 40.3541 32.8306C42.1791 30.9662 44.2571 29.4517 46.6002 28.3039C48.873 27.1906 51.2648 26.4731 53.7827 26.1859C54.3751 26.1181 54.969 26.0624 55.5624 26.0011H57.3894C57.5089 26.0197 57.6289 26.0408 57.7484 26.0548C58.6536 26.1603 59.5638 26.2266 60.4605 26.3767C63.258 26.8462 65.8622 27.8504 68.272 29.3423C71.9672 31.63 74.7832 34.7266 76.7071 38.6251C77.8197 40.8693 78.5341 43.2897 78.8183 45.7785C78.8835 46.3514 78.9393 46.9243 79 47.4962ZM44.8927 34.4996C44.9294 34.5478 44.9384 34.5704 44.954 34.578C46.2086 35.1965 47.4077 35.9217 48.5382 36.7457C48.6094 36.7974 48.7862 36.7758 48.8725 36.7216C51.9793 34.7527 55.3471 34.0733 58.9649 34.715C62.5099 35.3437 65.3947 37.1152 67.5988 39.9447C70.0945 43.1468 71.0459 46.7676 70.3571 50.7962C69.8952 53.4962 68.8138 55.9185 66.9757 57.9476C63.622 61.6467 59.4223 63.1767 54.4785 62.529C51.435 62.1303 48.8078 60.8172 46.6334 58.6194C43.8424 55.7999 41.0334 52.9991 38.2344 50.1871C37.8614 49.8126 37.4462 49.5113 36.909 49.4455C35.9706 49.3305 35.1192 49.799 34.714 50.6421C34.3525 51.3948 34.3992 52.2434 35.1834 53.0146C38.3037 56.0781 41.3964 59.1697 44.5132 62.2362C45.0466 62.7637 45.6187 63.2507 46.2247 63.6929C48.5015 65.3464 51.0685 66.2608 53.8484 66.6289C56.0304 66.9171 58.1952 66.8553 60.3435 66.3723C64.4413 65.4519 67.8357 63.36 70.5092 60.1323C72.7167 57.465 74.0517 54.4 74.5171 50.9589C74.7868 48.9967 74.7305 47.0033 74.3504 45.0594C73.7304 41.8809 72.3859 39.0369 70.2316 36.6161C66.1212 32 60.95 29.9393 54.7963 30.3992C52.4291 30.576 50.1899 31.2714 48.0828 32.3746C46.9457 32.9655 45.8761 33.678 44.8927 34.4996ZM43.387 66.7243C43.3024 66.6458 43.218 66.567 43.134 66.4878C41.8583 65.2832 40.5755 64.0861 39.3149 62.8659C39.0709 62.6299 38.8464 62.5149 38.501 62.523C37.2243 62.5541 35.9466 62.5596 34.6884 62.2754C28.4328 60.8604 24.8004 54.0581 27.1058 48.0727C28.9243 43.3532 33.9584 40.479 38.9227 41.3652C41.1479 41.7624 43.1009 42.7044 44.7039 44.3579C46.659 46.3765 48.6722 48.3373 50.6483 50.3353C51.0981 50.7902 51.6148 50.9976 52.2378 50.9087C53.0431 50.7937 53.6842 50.4101 53.9754 49.6202C54.2606 48.8429 54.1225 48.1068 53.5341 47.5108C51.4601 45.4094 49.4353 43.2553 47.2775 41.2432C43.0923 37.3392 38.1571 36.1783 32.6987 37.8383C25.3572 40.0692 21.0605 47.6514 22.7379 55.1331C24.2667 61.95 30.2276 66.7343 37.2027 66.7403C39.1502 66.7423 41.0982 66.7413 43.0456 66.7403C43.142 66.7403 43.2384 66.7318 43.387 66.7243Z" fill="#DA1F26"/>
</g>
</g>
<defs>
<filter id="filter0_ii_74_4" x="-20" y="-17" width="118" height="115" filterUnits="userSpaceOnUse" color-interpolation-filters="sRGB">
<feFlood flood-opacity="0" result="BackgroundImageFix"/>
<feBlend mode="normal" in="SourceGraphic" in2="BackgroundImageFix" result="shape"/>
<feColorMatrix in="SourceAlpha" type="matrix" values="0 0 0 0 0 0 0 0 0 0 0 0 0 0 0 0 0 0 127 0" result="hardAlpha"/>
<feMorphology radius="13" operator="erode" in="SourceAlpha" result="effect1_innerShadow_74_4"/>
<feOffset dx="-20" dy="-17"/>
<feGaussianBlur stdDeviation="18.2"/>
<feComposite in2="hardAlpha" operator="arithmetic" k2="-1" k3="1"/>
<feColorMatrix type="matrix" values="0 0 0 0 0 0 0 0 0 0 0 0 0 0 0 0 0 0 0.25 0"/>
<feBlend mode="normal" in2="shape" result="effect1_innerShadow_74_4"/>
<feColorMatrix in="SourceAlpha" type="matrix" values="0 0 0 0 0 0 0 0 0 0 0 0 0 0 0 0 0 0 127 0" result="hardAlpha"/>
<feMorphology radius="10" operator="erode" in="SourceAlpha" result="effect2_innerShadow_74_4"/>
<feOffset/>
<feGaussianBlur stdDeviation="20.75"/>
<feComposite in2="hardAlpha" operator="arithmetic" k2="-1" k3="1"/>
<feColorMatrix type="matrix" values="0 0 0 0 0.560784 0 0 0 0 1 0 0 0 0 0.580392 0 0 0 0.25 0"/>
<feBlend mode="normal" in2="effect1_innerShadow_74_4" result="effect2_innerShadow_74_4"/>
</filter>
<linearGradient id="paint0_linear_74_4" x1="49" y1="0" x2="49" y2="98" gradientUnits="userSpaceOnUse">
<stop stop-color="#57DA42"/>
<stop offset="1" stop-color="#B5B901"/>
</linearGradient>
<clipPath id="clip0_74_4">
<rect width="61" height="45" fill="white" transform="translate(18 26)"/>
</clipPath>
</defs>
</svg>
