<svg width="126" height="126" viewBox="0 0 126 126" fill="none" xmlns="http://www.w3.org/2000/svg">
<g filter="url(#filter0_ii_62_17)">
<circle cx="63" cy="63" r="63" fill="url(#paint0_linear_62_17)" fill-opacity="0.7"/>
</g>
<g clip-path="url(#clip0_62_17)">
<path d="M34.0053 37.7803C34.0318 37.0862 34.3099 36.4769 34.6782 35.91C35.2742 34.9987 36.1193 34.4159 37.1684 34.1351C37.3829 34.0795 37.6081 34.0742 37.8306 34.0477C37.9075 34.0344 37.9843 34.0212 38.0638 34.0106C38.1883 34.0079 38.3101 34 38.432 34C54.7877 34 71.1434 34 87.4991 34C87.621 34 87.7429 34.0079 87.8647 34.0106C87.9866 34.0212 88.1058 34.0318 88.2276 34.0424C90.3734 34.2729 91.9205 36.0319 91.9894 38.032C91.992 38.0797 91.9973 38.1247 92 38.1724C91.9973 38.2942 91.9894 38.4161 91.9894 38.538C91.9894 54.8486 91.9894 71.1593 91.9894 87.47C91.9894 87.5839 91.9973 87.6952 92 87.8091C91.8967 90.1721 90.2834 91.5576 88.5641 91.8967C88.2806 91.9523 87.9866 91.9656 87.6978 91.9974C87.5839 91.9947 87.4726 91.9868 87.3587 91.9868C71.1143 91.9868 54.8698 91.9868 38.6227 91.9868C38.5088 91.9868 38.3976 91.9947 38.2836 91.9974C36.8001 91.947 35.5868 91.3669 34.7259 90.1377C34.3205 89.5602 34.0424 88.9217 34.0026 88.2012C34.0053 88.1243 34.0053 88.0502 34.0079 87.9733C34.0079 87.8647 34 87.7535 34 87.6395C34 71.1991 34 54.7586 34 38.3181C34 38.1962 34.0079 38.0744 34.0132 37.9525C34.0106 37.8942 34.0079 37.8386 34.0053 37.7803ZM74.8601 83.4062C74.9688 83.4221 75.0774 83.4539 75.1886 83.4539C77.8192 83.4566 80.4472 83.4566 83.0777 83.4539C83.1837 83.4539 83.2923 83.4142 83.3983 83.393C83.4036 83.3771 83.4089 83.3612 83.4142 83.3427C83.4301 83.2234 83.4566 83.1016 83.4566 82.9824C83.4592 80.0551 83.4592 77.1304 83.4566 74.2032C83.4566 74.084 83.4274 73.9621 83.4142 73.8429C83.4089 73.8243 83.4036 73.8058 83.3983 73.7899C83.4009 71.6468 83.4036 69.5036 83.4009 67.3631C83.4009 67.0161 83.3665 66.6717 83.3479 66.3247C83.3294 66.1207 83.3082 65.9193 83.295 65.7154C83.2632 65.2597 83.2685 64.7961 83.1996 64.3458C83.0671 63.5007 82.9135 62.6556 82.7254 61.8238C82.3439 60.1389 81.6022 58.6342 80.3465 57.4209C78.9186 56.0407 77.141 55.4367 75.2204 55.201C74.4336 55.1056 73.6362 55.103 72.8415 55.0844C71.7342 55.0606 70.6613 55.2672 69.6228 55.6487C67.628 56.3798 66.0438 57.617 64.9789 59.4793C64.9418 59.3892 64.8729 59.3018 64.8729 59.2117C64.865 58.168 64.8703 57.1216 64.865 56.0778C64.865 55.9719 64.8252 55.8686 64.8067 55.7626C62.0781 55.7626 59.3495 55.7599 56.6209 55.7599C56.5997 55.8686 56.56 55.9745 56.56 56.0831C56.5573 65.0796 56.5573 74.076 56.56 83.0724C56.56 83.1811 56.5944 83.2897 56.6156 83.3983V83.3956C56.7242 83.4142 56.8302 83.4513 56.9388 83.4513C59.5694 83.4539 62.1973 83.4539 64.8279 83.4513C64.9365 83.4513 65.0451 83.4195 65.1537 83.4036L65.1484 83.3983C65.167 83.2817 65.2041 83.1678 65.2041 83.0513C65.2067 78.5451 65.2067 74.0416 65.2067 69.5354C65.2067 69.2175 65.2067 68.897 65.2041 68.5791C65.2279 68.2824 65.2385 67.983 65.2782 67.689C65.4028 66.7406 65.567 65.8001 66.0253 64.9418C66.3882 64.2636 66.8704 63.702 67.5353 63.302C68.5632 62.6821 69.697 62.5788 70.8494 62.6742C71.3712 62.7165 71.909 62.8411 72.3912 63.045C73.517 63.5219 74.0707 64.4888 74.4177 65.6067C74.725 66.5949 74.7356 67.6201 74.8178 68.64C74.8151 69.0453 74.8125 69.448 74.8125 69.8533C74.8125 74.2561 74.8125 78.659 74.8151 83.0592C74.8151 83.1731 74.8522 83.287 74.8734 83.4009L74.8601 83.4062ZM51.1796 83.4009C51.1955 83.3029 51.2326 83.2049 51.2326 83.1069C51.2352 74.0893 51.2352 65.0716 51.2326 56.054C51.2326 55.956 51.1928 55.8606 51.1716 55.7626C49.4126 55.7599 47.651 55.7546 45.8919 55.7546C44.8084 55.7546 43.7276 55.7599 42.6441 55.7652C42.6282 55.7573 42.6097 55.7546 42.5911 55.7599C42.5699 55.8871 42.5302 56.0143 42.5302 56.1414C42.5275 65.0902 42.5275 74.0363 42.5302 82.985C42.5302 83.1042 42.5567 83.2261 42.5699 83.3453C42.5938 83.3638 42.6176 83.3824 42.6415 83.3983L42.6362 83.4115C42.7368 83.4248 42.8375 83.4513 42.9382 83.4513C45.5846 83.4539 48.2338 83.4539 50.8802 83.4513C50.9836 83.4539 51.0816 83.4195 51.1796 83.4009ZM51.8551 46.9224C51.9346 44.4826 49.802 42.0401 46.9675 42.0057C44.0773 41.9712 41.8997 44.3501 41.905 46.9648C41.9129 49.6484 44.019 51.9505 46.888 51.9611C49.6007 51.9743 51.9108 49.765 51.8551 46.9224Z" fill="#DDFF8A"/>
</g>
<defs>
<filter id="filter0_ii_62_17" x="-20" y="-17" width="146" height="143" filterUnits="userSpaceOnUse" color-interpolation-filters="sRGB">
<feFlood flood-opacity="0" result="BackgroundImageFix"/>
<feBlend mode="normal" in="SourceGraphic" in2="BackgroundImageFix" result="shape"/>
<feColorMatrix in="SourceAlpha" type="matrix" values="0 0 0 0 0 0 0 0 0 0 0 0 0 0 0 0 0 0 127 0" result="hardAlpha"/>
<feMorphology radius="13" operator="erode" in="SourceAlpha" result="effect1_innerShadow_62_17"/>
<feOffset dx="-20" dy="-17"/>
<feGaussianBlur stdDeviation="18.2"/>
<feComposite in2="hardAlpha" operator="arithmetic" k2="-1" k3="1"/>
<feColorMatrix type="matrix" values="0 0 0 0 0 0 0 0 0 0 0 0 0 0 0 0 0 0 0.25 0"/>
<feBlend mode="normal" in2="shape" result="effect1_innerShadow_62_17"/>
<feColorMatrix in="SourceAlpha" type="matrix" values="0 0 0 0 0 0 0 0 0 0 0 0 0 0 0 0 0 0 127 0" result="hardAlpha"/>
<feMorphology radius="10" operator="erode" in="SourceAlpha" result="effect2_innerShadow_62_17"/>
<feOffset/>
<feGaussianBlur stdDeviation="20.75"/>
<feComposite in2="hardAlpha" operator="arithmetic" k2="-1" k3="1"/>
<feColorMatrix type="matrix" values="0 0 0 0 0.560784 0 0 0 0 1 0 0 0 0 0.580392 0 0 0 0.25 0"/>
<feBlend mode="normal" in2="effect1_innerShadow_62_17" result="effect2_innerShadow_62_17"/>
</filter>
<linearGradient id="paint0_linear_62_17" x1="63" y1="0" x2="63" y2="126" gradientUnits="userSpaceOnUse">
<stop stop-color="#57DA42"/>
<stop offset="1" stop-color="#B5B901"/>
</linearGradient>
<clipPath id="clip0_62_17">
<rect width="58" height="58" fill="white" transform="translate(34 34)"/>
</clipPath>
</defs>
</svg>
