<svg width="98" height="98" viewBox="0 0 98 98" fill="none" xmlns="http://www.w3.org/2000/svg">
<g filter="url(#filter0_ii_74_2)">
<circle cx="49" cy="49" r="49" fill="url(#paint0_linear_74_2)" fill-opacity="0.7"/>
</g>
<g clip-path="url(#clip0_74_2)">
<path d="M37.2523 83C43.461 83 48.5 77.9973 48.5 71.8333V60.6666H37.2523C31.0435 60.6666 26.0045 65.6693 26.0045 71.8333C26.0045 77.9973 31.0435 83 37.2523 83Z" fill="#0ACF83"/>
<path d="M26.0045 49.5C26.0045 43.336 31.0435 38.3334 37.2523 38.3334H48.5V60.6667H37.2523C31.0435 60.6667 26.0045 55.664 26.0045 49.5Z" fill="#A259FF"/>
<path d="M26.0048 27.1667C26.0048 21.0027 31.0438 16 37.2526 16H48.5003V38.3333H37.2526C31.0438 38.3333 26.0048 33.3307 26.0048 27.1667Z" fill="#F24E1E"/>
<path d="M48.5 16H59.7478C65.9565 16 70.9955 21.0027 70.9955 27.1667C70.9955 33.3307 65.9565 38.3333 59.7478 38.3333H48.5V16Z" fill="#FF7262"/>
<path d="M70.9955 49.5C70.9955 55.664 65.9565 60.6667 59.7478 60.6667C53.539 60.6667 48.5 55.664 48.5 49.5C48.5 43.336 53.539 38.3334 59.7478 38.3334C65.9565 38.3334 70.9955 43.336 70.9955 49.5Z" fill="#1ABCFE"/>
</g>
<defs>
<filter id="filter0_ii_74_2" x="-20" y="-17" width="118" height="115" filterUnits="userSpaceOnUse" color-interpolation-filters="sRGB">
<feFlood flood-opacity="0" result="BackgroundImageFix"/>
<feBlend mode="normal" in="SourceGraphic" in2="BackgroundImageFix" result="shape"/>
<feColorMatrix in="SourceAlpha" type="matrix" values="0 0 0 0 0 0 0 0 0 0 0 0 0 0 0 0 0 0 127 0" result="hardAlpha"/>
<feMorphology radius="13" operator="erode" in="SourceAlpha" result="effect1_innerShadow_74_2"/>
<feOffset dx="-20" dy="-17"/>
<feGaussianBlur stdDeviation="18.2"/>
<feComposite in2="hardAlpha" operator="arithmetic" k2="-1" k3="1"/>
<feColorMatrix type="matrix" values="0 0 0 0 0 0 0 0 0 0 0 0 0 0 0 0 0 0 0.25 0"/>
<feBlend mode="normal" in2="shape" result="effect1_innerShadow_74_2"/>
<feColorMatrix in="SourceAlpha" type="matrix" values="0 0 0 0 0 0 0 0 0 0 0 0 0 0 0 0 0 0 127 0" result="hardAlpha"/>
<feMorphology radius="10" operator="erode" in="SourceAlpha" result="effect2_innerShadow_74_2"/>
<feOffset/>
<feGaussianBlur stdDeviation="20.75"/>
<feComposite in2="hardAlpha" operator="arithmetic" k2="-1" k3="1"/>
<feColorMatrix type="matrix" values="0 0 0 0 0.560784 0 0 0 0 1 0 0 0 0 0.580392 0 0 0 0.25 0"/>
<feBlend mode="normal" in2="effect1_innerShadow_74_2" result="effect2_innerShadow_74_2"/>
</filter>
<linearGradient id="paint0_linear_74_2" x1="49" y1="0" x2="49" y2="98" gradientUnits="userSpaceOnUse">
<stop stop-color="#57DA42"/>
<stop offset="1" stop-color="#B5B901"/>
</linearGradient>
<clipPath id="clip0_74_2">
<rect width="45" height="67" fill="white" transform="translate(26 16)"/>
</clipPath>
</defs>
</svg>
