<svg width="446" height="455" viewBox="0 0 446 455" fill="none" xmlns="http://www.w3.org/2000/svg">
<path d="M51.8284 239.356L48.4186 223.102L99.6241 212.36L103.034 228.614L51.8284 239.356ZM83.2736 191.464L101.501 187.64L115.298 253.409L97.0703 257.232L83.2736 191.464ZM39.1148 200.727L57.342 196.904L71.1387 262.672L52.9115 266.496L39.1148 200.727ZM164.973 243.969C159.649 245.086 154.855 245.143 150.59 244.142C146.375 243.064 142.886 241.082 140.122 238.196C137.346 235.247 135.471 231.455 134.499 226.82C133.514 222.122 133.675 217.903 134.983 214.163C136.278 210.36 138.614 207.156 141.991 204.552C145.368 201.947 149.687 200.093 154.949 198.989C160.21 197.885 164.803 197.804 168.728 198.747C172.653 199.689 175.897 201.591 178.46 204.454C181.009 207.254 182.776 211.004 183.762 215.701C183.919 216.453 184.046 217.211 184.141 217.976C184.285 218.665 184.385 219.298 184.441 219.875L144.134 228.33L142.38 219.968L167.842 214.627L165.272 219.678C165.48 219.111 165.644 218.488 165.763 217.809C165.882 217.13 165.896 216.572 165.804 216.133C165.436 214.38 164.814 212.973 163.938 211.915C163.111 210.78 162.069 210.018 160.81 209.628C159.6 209.162 158.244 209.087 156.741 209.403C154.862 209.797 153.388 210.564 152.319 211.704C151.25 212.843 150.593 214.387 150.348 216.335C150.089 218.22 150.249 220.541 150.827 223.297C151.277 225.753 152.024 227.754 153.068 229.301C154.112 230.847 155.39 231.952 156.902 232.616C158.402 233.217 160.122 233.314 162.064 232.907C164.444 232.407 166.363 231.58 167.821 230.424C169.328 229.192 170.38 227.663 170.978 225.838L186.246 225.676C184.862 230.609 182.395 234.592 178.846 237.625C175.36 240.646 170.736 242.76 164.973 243.969ZM195.517 160.071L211.772 156.661L227.145 229.946L210.891 233.355L195.517 160.071ZM236.127 151.552L252.381 148.142L267.755 221.427L251.501 224.837L236.127 151.552ZM285.322 195.181C284.35 190.546 284.605 186.307 286.088 182.465C287.571 178.623 290.032 175.392 293.472 172.774C296.961 170.081 301.117 168.228 305.94 167.216C310.826 166.191 315.376 166.218 319.591 167.295C323.793 168.31 327.345 170.279 330.247 173.201C333.211 176.111 335.18 179.883 336.152 184.518C337.111 189.091 336.818 193.304 335.273 197.16C333.79 201.002 331.335 204.264 327.909 206.944C324.469 209.562 320.306 211.384 315.421 212.409C310.597 213.42 306.054 213.425 301.789 212.423C297.574 211.346 294.016 209.346 291.114 206.423C288.212 203.501 286.282 199.753 285.322 195.181ZM302.046 191.673C302.467 193.677 303.204 195.321 304.258 196.604C305.361 197.811 306.649 198.652 308.122 199.128C309.582 199.541 311.095 199.583 312.661 199.255C314.227 198.926 315.595 198.28 316.766 197.315C317.924 196.287 318.765 194.999 319.291 193.45C319.803 191.839 319.849 190.031 319.428 188.026C319.008 186.022 318.246 184.416 317.142 183.209C316.026 181.939 314.731 181.066 313.258 180.591C311.785 180.115 310.265 180.041 308.7 180.37C307.134 180.698 305.772 181.376 304.614 182.404C303.456 183.432 302.622 184.751 302.11 186.363C301.647 187.898 301.626 189.668 302.046 191.673ZM350.616 135.382L370.628 131.184L376.312 175.112L363.065 177.892L350.616 135.382ZM363.072 194.761C362.507 192.068 362.993 189.71 364.531 187.687C366.055 185.602 368.258 184.257 371.139 183.652C374.083 183.035 376.641 183.381 378.812 184.691C381.033 185.926 382.426 187.889 382.991 190.583C383.543 193.214 383.05 195.54 381.512 197.563C380.051 199.635 377.848 200.98 374.904 201.598C372.023 202.202 369.465 201.856 367.231 200.559C365.01 199.325 363.624 197.392 363.072 194.761Z" fill="white"/>
<g filter="url(#filter0_biii_23_21)">
<circle cx="202" cy="202" r="202" fill="url(#paint0_linear_23_21)" fill-opacity="0.75"/>
</g>
<path d="M49.8284 228.356L46.4186 212.102L97.6241 201.36L101.034 217.614L49.8284 228.356ZM81.2736 180.464L99.5009 176.64L113.298 242.409L95.0703 246.232L81.2736 180.464ZM37.1148 189.727L55.342 185.904L69.1387 251.672L50.9115 255.496L37.1148 189.727ZM162.973 232.969C157.649 234.086 152.855 234.143 148.59 233.142C144.375 232.064 140.886 230.082 138.122 227.196C135.346 224.247 133.471 220.455 132.499 215.82C131.514 211.122 131.675 206.903 132.983 203.163C134.278 199.36 136.614 196.156 139.991 193.552C143.368 190.947 147.687 189.093 152.949 187.989C158.21 186.885 162.803 186.804 166.728 187.747C170.653 188.689 173.897 190.591 176.46 193.454C179.009 196.254 180.776 200.004 181.762 204.701C181.919 205.453 182.046 206.211 182.141 206.976C182.285 207.665 182.385 208.298 182.441 208.875L142.134 217.33L140.38 208.968L165.842 203.627L163.272 208.678C163.48 208.111 163.644 207.488 163.763 206.809C163.882 206.13 163.896 205.572 163.804 205.133C163.436 203.38 162.814 201.973 161.938 200.915C161.111 199.78 160.069 199.018 158.81 198.628C157.6 198.162 156.244 198.087 154.741 198.403C152.862 198.797 151.388 199.564 150.319 200.704C149.25 201.843 148.593 203.387 148.348 205.335C148.089 207.22 148.249 209.541 148.827 212.297C149.277 214.753 150.024 216.754 151.068 218.301C152.112 219.847 153.39 220.952 154.902 221.616C156.402 222.217 158.122 222.314 160.064 221.907C162.444 221.407 164.363 220.58 165.821 219.424C167.328 218.192 168.38 216.663 168.978 214.838L184.246 214.676C182.862 219.609 180.395 223.592 176.846 226.625C173.36 229.646 168.736 231.76 162.973 232.969ZM193.517 149.071L209.772 145.661L225.145 218.946L208.891 222.355L193.517 149.071ZM234.127 140.552L250.381 137.142L265.755 210.427L249.501 213.837L234.127 140.552ZM283.322 184.181C282.35 179.546 282.605 175.307 284.088 171.465C285.571 167.623 288.032 164.392 291.472 161.774C294.961 159.081 299.117 157.228 303.94 156.216C308.826 155.191 313.376 155.218 317.591 156.295C321.793 157.31 325.345 159.279 328.247 162.201C331.211 165.111 333.18 168.883 334.152 173.518C335.111 178.091 334.818 182.304 333.273 186.16C331.79 190.002 329.335 193.264 325.909 195.944C322.469 198.562 318.306 200.384 313.421 201.409C308.597 202.42 304.054 202.425 299.789 201.423C295.574 200.346 292.016 198.346 289.114 195.423C286.212 192.501 284.282 188.753 283.322 184.181ZM300.046 180.673C300.467 182.677 301.204 184.321 302.258 185.604C303.361 186.811 304.649 187.652 306.122 188.128C307.582 188.541 309.095 188.583 310.661 188.255C312.227 187.926 313.595 187.28 314.766 186.315C315.924 185.287 316.765 183.999 317.291 182.45C317.803 180.839 317.849 179.031 317.428 177.026C317.008 175.022 316.246 173.416 315.142 172.209C314.026 170.939 312.731 170.066 311.258 169.591C309.785 169.115 308.265 169.041 306.7 169.37C305.134 169.698 303.772 170.376 302.614 171.404C301.456 172.432 300.622 173.751 300.11 175.363C299.647 176.898 299.626 178.668 300.046 180.673ZM348.616 124.382L368.628 120.184L374.312 164.112L361.065 166.892L348.616 124.382ZM361.072 183.761C360.507 181.068 360.993 178.71 362.531 176.687C364.055 174.602 366.258 173.257 369.139 172.652C372.083 172.035 374.641 172.381 376.812 173.691C379.033 174.926 380.426 176.889 380.991 179.583C381.543 182.214 381.05 184.54 379.512 186.563C378.051 188.635 375.848 189.98 372.904 190.598C370.023 191.202 367.465 190.856 365.231 189.559C363.01 188.325 361.624 186.392 361.072 183.761Z" fill="#DDFF8A"/>
<g filter="url(#filter1_ii_23_21)">
<circle cx="404" cy="371" r="42" fill="url(#paint1_linear_23_21)" fill-opacity="0.7"/>
</g>
<g filter="url(#filter2_ii_23_21)">
<circle cx="320.5" cy="429.5" r="25.5" fill="url(#paint2_linear_23_21)" fill-opacity="0.7"/>
</g>
<defs>
<filter id="filter0_biii_23_21" x="-20" y="-17" width="433.3" height="430.3" filterUnits="userSpaceOnUse" color-interpolation-filters="sRGB">
<feFlood flood-opacity="0" result="BackgroundImageFix"/>
<feGaussianBlur in="BackgroundImageFix" stdDeviation="4"/>
<feComposite in2="SourceAlpha" operator="in" result="effect1_backgroundBlur_23_21"/>
<feBlend mode="normal" in="SourceGraphic" in2="effect1_backgroundBlur_23_21" result="shape"/>
<feColorMatrix in="SourceAlpha" type="matrix" values="0 0 0 0 0 0 0 0 0 0 0 0 0 0 0 0 0 0 127 0" result="hardAlpha"/>
<feMorphology radius="7" operator="dilate" in="SourceAlpha" result="effect2_innerShadow_23_21"/>
<feOffset dx="16" dy="12"/>
<feGaussianBlur stdDeviation="8.15"/>
<feComposite in2="hardAlpha" operator="arithmetic" k2="-1" k3="1"/>
<feColorMatrix type="matrix" values="0 0 0 0 1 0 0 0 0 1 0 0 0 0 1 0 0 0 0.25 0"/>
<feBlend mode="normal" in2="shape" result="effect2_innerShadow_23_21"/>
<feColorMatrix in="SourceAlpha" type="matrix" values="0 0 0 0 0 0 0 0 0 0 0 0 0 0 0 0 0 0 127 0" result="hardAlpha"/>
<feMorphology radius="13" operator="erode" in="SourceAlpha" result="effect3_innerShadow_23_21"/>
<feOffset dx="-20" dy="-17"/>
<feGaussianBlur stdDeviation="18.2"/>
<feComposite in2="hardAlpha" operator="arithmetic" k2="-1" k3="1"/>
<feColorMatrix type="matrix" values="0 0 0 0 0 0 0 0 0 0 0 0 0 0 0 0 0 0 0.25 0"/>
<feBlend mode="normal" in2="effect2_innerShadow_23_21" result="effect3_innerShadow_23_21"/>
<feColorMatrix in="SourceAlpha" type="matrix" values="0 0 0 0 0 0 0 0 0 0 0 0 0 0 0 0 0 0 127 0" result="hardAlpha"/>
<feMorphology radius="10" operator="erode" in="SourceAlpha" result="effect4_innerShadow_23_21"/>
<feOffset/>
<feGaussianBlur stdDeviation="20.75"/>
<feComposite in2="hardAlpha" operator="arithmetic" k2="-1" k3="1"/>
<feColorMatrix type="matrix" values="0 0 0 0 0.560784 0 0 0 0 1 0 0 0 0 0.580392 0 0 0 0.25 0"/>
<feBlend mode="normal" in2="effect3_innerShadow_23_21" result="effect4_innerShadow_23_21"/>
</filter>
<filter id="filter1_ii_23_21" x="342" y="312" width="104" height="101" filterUnits="userSpaceOnUse" color-interpolation-filters="sRGB">
<feFlood flood-opacity="0" result="BackgroundImageFix"/>
<feBlend mode="normal" in="SourceGraphic" in2="BackgroundImageFix" result="shape"/>
<feColorMatrix in="SourceAlpha" type="matrix" values="0 0 0 0 0 0 0 0 0 0 0 0 0 0 0 0 0 0 127 0" result="hardAlpha"/>
<feMorphology radius="13" operator="erode" in="SourceAlpha" result="effect1_innerShadow_23_21"/>
<feOffset dx="-20" dy="-17"/>
<feGaussianBlur stdDeviation="18.2"/>
<feComposite in2="hardAlpha" operator="arithmetic" k2="-1" k3="1"/>
<feColorMatrix type="matrix" values="0 0 0 0 0 0 0 0 0 0 0 0 0 0 0 0 0 0 0.25 0"/>
<feBlend mode="normal" in2="shape" result="effect1_innerShadow_23_21"/>
<feColorMatrix in="SourceAlpha" type="matrix" values="0 0 0 0 0 0 0 0 0 0 0 0 0 0 0 0 0 0 127 0" result="hardAlpha"/>
<feMorphology radius="10" operator="erode" in="SourceAlpha" result="effect2_innerShadow_23_21"/>
<feOffset/>
<feGaussianBlur stdDeviation="20.75"/>
<feComposite in2="hardAlpha" operator="arithmetic" k2="-1" k3="1"/>
<feColorMatrix type="matrix" values="0 0 0 0 0.560784 0 0 0 0 1 0 0 0 0 0.580392 0 0 0 0.25 0"/>
<feBlend mode="normal" in2="effect1_innerShadow_23_21" result="effect2_innerShadow_23_21"/>
</filter>
<filter id="filter2_ii_23_21" x="275" y="387" width="71" height="68" filterUnits="userSpaceOnUse" color-interpolation-filters="sRGB">
<feFlood flood-opacity="0" result="BackgroundImageFix"/>
<feBlend mode="normal" in="SourceGraphic" in2="BackgroundImageFix" result="shape"/>
<feColorMatrix in="SourceAlpha" type="matrix" values="0 0 0 0 0 0 0 0 0 0 0 0 0 0 0 0 0 0 127 0" result="hardAlpha"/>
<feMorphology radius="13" operator="erode" in="SourceAlpha" result="effect1_innerShadow_23_21"/>
<feOffset dx="-20" dy="-17"/>
<feGaussianBlur stdDeviation="18.2"/>
<feComposite in2="hardAlpha" operator="arithmetic" k2="-1" k3="1"/>
<feColorMatrix type="matrix" values="0 0 0 0 0 0 0 0 0 0 0 0 0 0 0 0 0 0 0.25 0"/>
<feBlend mode="normal" in2="shape" result="effect1_innerShadow_23_21"/>
<feColorMatrix in="SourceAlpha" type="matrix" values="0 0 0 0 0 0 0 0 0 0 0 0 0 0 0 0 0 0 127 0" result="hardAlpha"/>
<feMorphology radius="10" operator="erode" in="SourceAlpha" result="effect2_innerShadow_23_21"/>
<feOffset/>
<feGaussianBlur stdDeviation="20.75"/>
<feComposite in2="hardAlpha" operator="arithmetic" k2="-1" k3="1"/>
<feColorMatrix type="matrix" values="0 0 0 0 0.560784 0 0 0 0 1 0 0 0 0 0.580392 0 0 0 0.25 0"/>
<feBlend mode="normal" in2="effect1_innerShadow_23_21" result="effect2_innerShadow_23_21"/>
</filter>
<linearGradient id="paint0_linear_23_21" x1="202" y1="0" x2="202" y2="404" gradientUnits="userSpaceOnUse">
<stop stop-color="#57DA42"/>
<stop offset="1" stop-color="#B5B901"/>
</linearGradient>
<linearGradient id="paint1_linear_23_21" x1="404" y1="329" x2="404" y2="413" gradientUnits="userSpaceOnUse">
<stop stop-color="#57DA42"/>
<stop offset="1" stop-color="#B5B901"/>
</linearGradient>
<linearGradient id="paint2_linear_23_21" x1="320.5" y1="404" x2="320.5" y2="455" gradientUnits="userSpaceOnUse">
<stop stop-color="#57DA42"/>
<stop offset="1" stop-color="#B5B901"/>
</linearGradient>
</defs>
</svg>
