<svg width="98" height="98" viewBox="0 0 98 98" fill="none" xmlns="http://www.w3.org/2000/svg">
<g filter="url(#filter0_ii_74_11)">
<circle cx="49" cy="49" r="49" fill="url(#paint0_linear_74_11)" fill-opacity="0.7"/>
</g>
<g clip-path="url(#clip0_74_11)">
<rect x="32" y="35" width="33" height="39" fill="#D9D9D9"/>
<path d="M48.8394 83C45.46 81.9954 42.0873 80.9706 38.7011 79.9863C35.9976 79.2016 33.2669 78.5082 30.5837 77.666C30.1082 77.5172 29.507 76.861 29.4629 76.3943C28.1621 62.3812 26.9258 48.3647 25.6691 34.3482C25.4755 32.1632 25.2344 29.985 25 27.6782C41.3401 27.6782 57.5919 27.6782 74 27.6782C73.7385 30.631 73.4736 33.5804 73.2154 36.5298C72.5633 43.9913 71.9248 51.4528 71.2557 58.9109C70.7293 64.7962 70.1824 70.6781 69.5677 76.5532C69.5235 76.9693 68.9054 77.5341 68.4469 77.6626C62.3741 79.3775 56.2843 81.0247 50.2014 82.7023C50.0689 82.7395 49.9738 82.8985 49.8617 83C49.5187 83 49.179 83 48.8394 83ZM49.1383 65.794C47.0155 65.2629 44.8894 64.7319 42.7666 64.2009C42.5798 62.5198 42.4066 60.9741 42.2368 59.4216C40.1242 59.4216 38.1203 59.4216 36.0112 59.4216C36.2591 62.442 36.4731 65.3509 36.7652 68.2529C36.7991 68.5743 37.2441 69.0207 37.5803 69.1154C41.4284 70.1876 45.2902 71.199 49.1519 72.2306C49.2775 72.3219 49.4032 72.4098 49.5289 72.5012C49.5289 74.4934 49.5289 76.4856 49.5289 78.5082C49.9976 78.5082 50.1708 78.5454 50.3202 78.5015C55.0378 77.2398 59.7656 76.012 64.4595 74.6557C65.0335 74.49 65.7196 73.7053 65.8248 73.1168C66.0999 71.5406 66.0558 69.9069 66.1951 68.3037C66.623 63.406 67.0713 58.5084 67.5197 53.6107C67.7608 50.9928 68.0053 48.3782 68.2635 45.7637C68.688 41.485 69.1228 37.2063 69.5541 32.9276C69.6424 32.0618 69.4148 31.5679 68.3721 31.5747C62.493 31.6085 56.6104 31.6085 50.7312 31.5747C49.7191 31.5679 49.4847 32.011 49.5085 32.904C49.5526 34.4801 49.5187 36.0563 49.5187 37.6325C44.4139 37.6325 39.3057 37.6325 34.0718 37.6325C34.6458 44.0556 35.1892 50.0863 35.7394 56.2287C40.4095 56.2287 44.9743 56.2287 49.5391 56.2287L49.5017 56.3301C49.5085 58.8534 49.5391 61.3766 49.5051 63.8998C49.4949 64.5323 49.2673 65.1615 49.1383 65.794Z" fill="#E45027"/>
<path d="M60.3871 14C60.3871 17.0272 60.3871 20.0578 60.3871 23.1492C59.375 23.1492 58.4308 23.1492 57.4017 23.1492C57.4017 21.8335 57.4017 20.555 57.4017 18.7657C56.5356 20.0036 55.9311 20.8661 55.211 21.8978C54.5351 20.9203 53.9238 20.0341 53.0849 18.8131C53.0849 20.4467 53.0849 21.7286 53.0849 23.112C51.9776 23.112 51.0606 23.112 49.8583 23.112C49.8583 20.0239 49.8583 17.0103 49.8583 13.9966C50.9893 13.9966 52.1237 13.9966 53.2547 13.9966C53.8966 15.0519 54.5385 16.1038 55.2789 17.3147C56.0635 16.0497 56.6986 15.0214 57.3304 13.9966C58.3493 14 59.3682 14 60.3871 14Z" fill="#161717"/>
<path d="M38.6502 14C38.6502 17.0272 38.6502 20.0578 38.6502 23.1493C37.5497 23.1493 36.6055 23.1493 35.5391 23.1493C35.5391 22.1447 35.5391 21.2044 35.5391 20.1965C34.5337 20.1965 33.6507 20.1965 32.6589 20.1965C32.6589 21.1672 32.6589 22.1075 32.6589 23.129C31.623 23.129 30.6924 23.129 29.4833 23.129C29.4833 20.0409 29.4833 17.0204 29.4833 14C30.5022 14 31.5211 14 32.54 14C32.5876 14.9809 32.6351 15.9618 32.6793 16.9393C33.7118 16.9393 34.622 16.9393 35.5968 16.9393C35.5968 15.884 35.5968 14.9403 35.5968 14C36.6123 14 37.6313 14 38.6502 14Z" fill="#151616"/>
<path d="M48.4998 14C48.4998 14.9504 48.4998 15.9009 48.4998 16.9832C47.7118 17.0204 46.839 17.0644 45.854 17.1118C45.854 19.131 45.854 21.0759 45.854 23.1154C44.8147 23.1154 43.8943 23.1154 42.8346 23.1154C42.8346 21.1199 42.8346 19.1784 42.8346 17.1219C41.8802 17.0779 41.0583 17.0374 40.0088 16.99C40.0088 15.9753 40.0088 14.9876 40.0088 14C42.8414 14 45.6706 14 48.4998 14Z" fill="#141515"/>
<path d="M65.1422 14C65.1422 16.0159 65.1422 18.0318 65.1422 20.2337C66.6706 20.2337 68.0563 20.2337 69.4896 20.2337C69.4896 21.3025 69.4896 22.1785 69.4896 23.1357C67.0238 23.1357 64.6226 23.1357 62.0854 23.1357C62.0854 20.0578 62.0854 17.0272 62.0854 14C63.1044 14 64.1233 14 65.1422 14Z" fill="#171818"/>
<path d="M49.5186 37.6359C49.5186 36.0597 49.5526 34.4835 49.5084 32.9073C49.4847 32.0144 49.719 31.5713 50.7311 31.5781C56.6103 31.6085 62.4929 31.6119 68.3721 31.5781C69.4148 31.5713 69.6423 32.0651 69.554 32.931C69.1261 37.2097 68.688 41.4884 68.2634 45.767C68.0053 48.3816 67.7607 50.9962 67.5196 53.6141C67.0713 58.5118 66.6195 63.4094 66.195 68.3071C66.0557 69.9103 66.0999 71.5406 65.8248 73.1201C65.7229 73.7087 65.0368 74.4934 64.4594 74.6591C59.769 76.0121 55.0412 77.2432 50.3202 78.5049C50.1673 78.5454 49.9941 78.5116 49.5288 78.5116C49.5288 76.4923 49.5288 74.5001 49.5288 72.5046C53.2615 71.4594 56.9839 70.3872 60.7302 69.386C61.8 69.1019 62.2823 68.6182 62.3604 67.4479C62.622 63.4703 63.0159 59.5028 63.3522 55.5285C63.5016 53.7731 63.6273 52.0143 63.7734 50.1168C58.8723 50.1168 54.1955 50.1168 49.5186 50.1168C49.522 48.2294 49.522 46.3387 49.5254 44.4513C49.6307 44.3498 49.7394 44.2484 49.8447 44.1469C54.1411 44.1266 58.4342 44.1232 62.7307 44.0759C63.2911 44.0691 63.8515 43.8425 64.4119 43.7173C64.5307 41.8165 64.6496 39.9156 64.7685 38.0147C64.67 37.9369 64.5715 37.8625 64.4764 37.7847C59.5992 37.7847 54.7219 37.7847 49.8447 37.7847C49.736 37.7306 49.6273 37.6832 49.5186 37.6359Z" fill="#F1672B"/>
<path d="M49.5255 66.0781C49.3964 65.9834 49.2674 65.8887 49.1383 65.794C49.2674 65.1615 49.4949 64.5324 49.5017 63.8965C49.5391 61.3733 49.5051 58.85 49.4983 56.3268C51.9709 56.3268 54.4469 56.3268 56.9976 56.3268C56.7802 58.7925 56.6172 61.1433 56.3149 63.4737C56.2674 63.8424 55.6458 64.2855 55.2043 64.4275C53.3295 65.0363 51.4207 65.5403 49.5255 66.0781Z" fill="#F1672B"/>
<path d="M49.5187 50.1134C49.4066 50.154 49.2945 50.1946 49.1824 50.2352C46.6487 50.2352 44.1116 50.2352 41.4352 50.2352C41.2688 48.3479 41.1126 46.5789 40.9597 44.8099C41.3129 44.563 41.6594 44.1098 42.016 44.1064C44.5192 44.0658 47.0223 44.1199 49.5255 44.1402C49.5221 44.2417 49.5221 44.3465 49.5255 44.448C49.5255 46.3354 49.5221 48.2261 49.5187 50.1134Z" fill="#E4522A"/>
<path d="M49.5255 44.1401C49.6342 44.1131 49.7395 44.1165 49.8448 44.1435C49.7395 44.245 49.6308 44.3465 49.5255 44.4479C49.5221 44.3465 49.5221 44.2416 49.5255 44.1401Z" fill="#F05B23"/>
</g>
<defs>
<filter id="filter0_ii_74_11" x="-20" y="-17" width="118" height="115" filterUnits="userSpaceOnUse" color-interpolation-filters="sRGB">
<feFlood flood-opacity="0" result="BackgroundImageFix"/>
<feBlend mode="normal" in="SourceGraphic" in2="BackgroundImageFix" result="shape"/>
<feColorMatrix in="SourceAlpha" type="matrix" values="0 0 0 0 0 0 0 0 0 0 0 0 0 0 0 0 0 0 127 0" result="hardAlpha"/>
<feMorphology radius="13" operator="erode" in="SourceAlpha" result="effect1_innerShadow_74_11"/>
<feOffset dx="-20" dy="-17"/>
<feGaussianBlur stdDeviation="18.2"/>
<feComposite in2="hardAlpha" operator="arithmetic" k2="-1" k3="1"/>
<feColorMatrix type="matrix" values="0 0 0 0 0 0 0 0 0 0 0 0 0 0 0 0 0 0 0.25 0"/>
<feBlend mode="normal" in2="shape" result="effect1_innerShadow_74_11"/>
<feColorMatrix in="SourceAlpha" type="matrix" values="0 0 0 0 0 0 0 0 0 0 0 0 0 0 0 0 0 0 127 0" result="hardAlpha"/>
<feMorphology radius="10" operator="erode" in="SourceAlpha" result="effect2_innerShadow_74_11"/>
<feOffset/>
<feGaussianBlur stdDeviation="20.75"/>
<feComposite in2="hardAlpha" operator="arithmetic" k2="-1" k3="1"/>
<feColorMatrix type="matrix" values="0 0 0 0 0.560784 0 0 0 0 1 0 0 0 0 0.580392 0 0 0 0.25 0"/>
<feBlend mode="normal" in2="effect1_innerShadow_74_11" result="effect2_innerShadow_74_11"/>
</filter>
<linearGradient id="paint0_linear_74_11" x1="49" y1="0" x2="49" y2="98" gradientUnits="userSpaceOnUse">
<stop stop-color="#57DA42"/>
<stop offset="1" stop-color="#B5B901"/>
</linearGradient>
<clipPath id="clip0_74_11">
<rect width="49" height="69" fill="white" transform="translate(25 14)"/>
</clipPath>
</defs>
</svg>
