<svg width="192" height="57" viewBox="0 0 192 57" fill="none" xmlns="http://www.w3.org/2000/svg">
<path d="M5.36735 12.2506C5.72449 12.8815 6.12415 13.4271 6.56632 13.8875C7.0085 14.3308 7.4932 14.6718 8.02041 14.9105C8.54762 15.1492 9.09183 15.2685 9.65306 15.2685C10.1973 15.2685 10.648 15.1492 11.0051 14.9105C11.3622 14.6547 11.5408 14.2881 11.5408 13.8107C11.5408 13.4697 11.4388 13.1884 11.2347 12.9668C11.0306 12.728 10.6735 12.4893 10.1633 12.2506C9.67006 12.0119 8.97279 11.7221 8.07143 11.3811C7.62925 11.2106 7.13605 10.9889 6.59184 10.7161C6.04762 10.4263 5.52041 10.0597 5.0102 9.61637C4.51701 9.17306 4.10034 8.62745 3.7602 7.97954C3.43707 7.33163 3.27551 6.56436 3.27551 5.67775C3.27551 4.55243 3.57313 3.60614 4.16837 2.83887C4.7636 2.05456 5.55442 1.4578 6.54081 1.04859C7.52721 0.639386 8.62415 0.434782 9.83163 0.434782C11.0901 0.434782 12.1786 0.639386 13.0969 1.04859C14.0153 1.44075 14.7721 1.94373 15.3673 2.55754C15.9626 3.1543 16.4218 3.75959 16.7449 4.3734L13.0204 6.44501C12.7653 6.01876 12.4677 5.66922 12.1275 5.39642C11.8044 5.10656 11.4558 4.88491 11.0816 4.73146C10.7075 4.578 10.3248 4.50128 9.93367 4.50128C9.44047 4.50128 9.04932 4.60358 8.7602 4.80818C8.47109 5.01279 8.32653 5.28559 8.32653 5.6266C8.32653 6.01875 8.48809 6.35124 8.81122 6.62404C9.15136 6.8798 9.61054 7.12702 10.1888 7.36573C10.784 7.58738 11.4643 7.83461 12.2296 8.10742C12.8929 8.34612 13.4966 8.63598 14.0408 8.97698C14.602 9.30094 15.0867 9.69309 15.4949 10.1535C15.9031 10.5968 16.2177 11.1083 16.4388 11.688C16.6599 12.2677 16.7704 12.9156 16.7704 13.6317C16.7704 14.5865 16.5748 15.4305 16.1837 16.1637C15.8095 16.8968 15.2908 17.5107 14.6275 18.0051C13.9813 18.4825 13.2415 18.8406 12.4082 19.0793C11.5748 19.335 10.7245 19.4629 9.85714 19.4629C8.63265 19.4629 7.49319 19.2498 6.43877 18.8235C5.40136 18.4143 4.5 17.8517 3.73469 17.1355C2.96939 16.4024 2.39116 15.5925 2 14.7059L5.36735 12.2506Z" fill="white"/>
<path d="M18.7969 5.31969V0.89514H33.7458V5.31969H28.7458V18.798H23.7969V5.31969H18.7969Z" fill="white"/>
<path d="M40.0174 18.798V14.7826H49.0225V18.798H40.0174ZM40.0174 4.91048V0.89514H49.0225V4.91048H40.0174ZM40.0174 11.4322V7.54476H48.5123V11.4322H40.0174ZM36.65 0.89514H41.3949V18.798H36.65V0.89514Z" fill="white"/>
<path d="M61.2709 10.6394L65.1995 0.89514H71.0158L61.2709 20L51.5516 0.89514H57.3679L61.2709 10.6394Z" fill="white"/>
<path d="M77.1596 18.798V14.7826H86.1647V18.798H77.1596ZM77.1596 4.91048V0.89514H86.1647V4.91048H77.1596ZM77.1596 11.4322V7.54476H85.6545V11.4322H77.1596ZM73.7923 0.89514H78.5372V18.798H73.7923V0.89514Z" fill="white"/>
<path d="M102.571 0.89514H107.316V19.6931L95.352 9.69309V18.798H90.6071V0L102.571 10V0.89514Z" fill="white"/>
<path d="M120.674 0.89514H125.827V18.798H120.674V0.89514ZM131.618 0.89514H137.383L130.292 9.28389L137.766 18.798H131.771L124.399 9.43734L131.618 0.89514Z" fill="white"/>
<path d="M140.553 0.89514H145.604V18.798H140.553V0.89514Z" fill="white"/>
<path d="M162.257 0.89514H167.002V19.6931L155.038 9.69309V18.798H150.293V0L162.257 10V0.89514Z" fill="white"/>
<path d="M180.697 12.4808V8.79795H189.957C190.076 10.2643 189.948 11.6454 189.574 12.9412C189.2 14.237 188.613 15.3708 187.814 16.3427C187.015 17.3146 186.011 18.0818 184.804 18.6445C183.596 19.1901 182.21 19.4629 180.646 19.4629C179.2 19.4629 177.865 19.2327 176.641 18.7724C175.433 18.312 174.379 17.6641 173.477 16.8286C172.593 15.9761 171.904 14.9616 171.411 13.7852C170.918 12.5916 170.671 11.2788 170.671 9.84655C170.671 8.41432 170.926 7.1185 171.436 5.95908C171.947 4.79966 172.661 3.81074 173.579 2.99233C174.498 2.15686 175.578 1.526 176.819 1.09974C178.061 0.656436 179.404 0.434782 180.85 0.434782C182.159 0.434782 183.324 0.63086 184.345 1.02302C185.382 1.39812 186.292 1.91816 187.074 2.58312C187.857 3.23103 188.537 3.97272 189.115 4.80818L184.6 6.9821C184.243 6.33419 183.766 5.78858 183.171 5.34527C182.576 4.90196 181.802 4.68031 180.85 4.68031C179.948 4.68031 179.115 4.87638 178.35 5.26854C177.584 5.6607 176.972 6.24041 176.513 7.00767C176.071 7.77494 175.85 8.72123 175.85 9.84655C175.85 10.9548 176.062 11.9182 176.488 12.7366C176.913 13.5379 177.499 14.1517 178.248 14.578C178.996 15.0043 179.863 15.2174 180.85 15.2174C181.445 15.2174 181.972 15.1577 182.431 15.0384C182.891 14.902 183.29 14.7144 183.63 14.4757C183.971 14.2199 184.26 13.9216 184.498 13.5806C184.753 13.2396 184.957 12.873 185.11 12.4808H180.697Z" fill="white"/>
<path d="M2 38.8636H4.17592V56.1364H2V38.8636ZM7.3758 56.1364H3.20316V54.039H7.3758C8.3827 54.039 9.30426 53.8909 10.1405 53.5948C10.9767 53.2823 11.6935 52.8463 12.2908 52.287C12.8881 51.7113 13.3489 51.0203 13.6732 50.2143C13.9974 49.4082 14.1596 48.5035 14.1596 47.5C14.1596 46.4965 13.9974 45.5918 13.6732 44.7857C13.3489 43.9797 12.8881 43.297 12.2908 42.7377C11.6935 42.1619 10.9767 41.726 10.1405 41.4299C9.30426 41.1173 8.3827 40.961 7.3758 40.961H3.20316V38.8636H7.3758C9.11654 38.8636 10.661 39.2255 12.0092 39.9494C13.3574 40.6732 14.4155 41.6848 15.1835 42.9844C15.9515 44.2675 16.3355 45.7727 16.3355 47.5C16.3355 49.2273 15.9515 50.7407 15.1835 52.0403C14.4155 53.3234 13.3574 54.3268 12.0092 55.0506C10.661 55.7745 9.11654 56.1364 7.3758 56.1364Z" fill="white"/>
<path d="M22.3944 56.1364V54.1623H31.4309V56.1364H22.3944ZM22.3944 40.8377V38.8636H31.4309V40.8377H22.3944ZM22.3944 47.7468V45.7727H30.9189V47.7468H22.3944ZM21.1913 38.8636H23.3672V56.1364H21.1913V38.8636Z" fill="white"/>
<path d="M37.7233 50.9052C38.1329 51.5961 38.5595 52.2048 39.0032 52.7312C39.464 53.2576 39.976 53.6688 40.5392 53.9649C41.1024 54.261 41.7423 54.4091 42.4591 54.4091C43.4148 54.4091 44.1828 54.1541 44.763 53.6442C45.3433 53.1342 45.6334 52.4844 45.6334 51.6948C45.6334 50.9216 45.4457 50.3048 45.0702 49.8442C44.6948 49.3835 44.1998 49.0134 43.5855 48.7338C42.9882 48.4377 42.3482 48.1745 41.6655 47.9442C41.2218 47.7961 40.7269 47.6069 40.1808 47.3766C39.6347 47.1299 39.1142 46.8255 38.6193 46.4636C38.1243 46.0853 37.7147 45.6247 37.3905 45.0818C37.0833 44.539 36.9297 43.8727 36.9297 43.0831C36.9297 42.2277 37.1516 41.4628 37.5953 40.7883C38.039 40.1139 38.6534 39.5874 39.4384 39.2091C40.2235 38.8143 41.1194 38.6169 42.1263 38.6169C43.0991 38.6169 43.9439 38.7978 44.6606 39.1597C45.3945 39.5052 46.0174 39.9576 46.5294 40.5169C47.0413 41.0597 47.4424 41.6355 47.7325 42.2442L45.8638 43.2805C45.6419 42.8528 45.3603 42.4333 45.019 42.0221C44.6777 41.6108 44.2596 41.2736 43.7647 41.0104C43.2868 40.7472 42.698 40.6156 41.9983 40.6156C41.0256 40.6156 40.3173 40.8459 39.8736 41.3065C39.4299 41.7506 39.208 42.2524 39.208 42.8117C39.208 43.2887 39.336 43.7329 39.592 44.1442C39.848 44.539 40.2747 44.9173 40.872 45.2792C41.4863 45.6247 42.314 45.9701 43.3551 46.3156C43.8329 46.4801 44.3364 46.6939 44.8654 46.9571C45.3945 47.2203 45.8809 47.5576 46.3246 47.9688C46.7854 48.3636 47.1608 48.8489 47.4509 49.4247C47.741 49.984 47.8861 50.6584 47.8861 51.4481C47.8861 52.2048 47.7325 52.8874 47.4253 53.4961C47.1352 54.1048 46.7256 54.6229 46.1966 55.0506C45.6846 55.4784 45.0958 55.8074 44.4302 56.0377C43.7817 56.268 43.0991 56.3831 42.3823 56.3831C41.4095 56.3831 40.505 56.1857 39.6688 55.7909C38.8496 55.3797 38.1243 54.845 37.4929 54.187C36.8785 53.5126 36.3751 52.797 35.9825 52.0403L37.7233 50.9052Z" fill="white"/>
<path d="M52.8741 38.8636H55.05V56.1364H52.8741V38.8636Z" fill="white"/>
<path d="M69.2605 49.3506V47.3766H77.5802C77.5802 48.5775 77.3925 49.7208 77.017 50.8065C76.6416 51.8758 76.0869 52.8299 75.3531 53.6688C74.6193 54.5078 73.7148 55.174 72.6396 55.6675C71.5815 56.1446 70.3698 56.3831 69.0045 56.3831C67.7075 56.3831 66.5044 56.1693 65.3951 55.7416C64.2858 55.2974 63.3215 54.6805 62.5024 53.8909C61.6832 53.0848 61.0432 52.139 60.5824 51.0532C60.1387 49.9675 59.9169 48.7831 59.9169 47.5C59.9169 46.2169 60.1387 45.0325 60.5824 43.9468C61.0432 42.861 61.6832 41.9234 62.5024 41.1338C63.3215 40.3277 64.2858 39.7108 65.3951 39.2831C66.5044 38.839 67.7075 38.6169 69.0045 38.6169C70.1138 38.6169 71.1293 38.7567 72.0508 39.0364C72.9894 39.316 73.8257 39.7273 74.5595 40.2701C75.3104 40.813 75.9419 41.4874 76.4539 42.2935L74.9179 43.6506C74.3547 42.7294 73.5697 42.0139 72.5628 41.5039C71.5559 40.9775 70.3698 40.7143 69.0045 40.7143C67.7416 40.7143 66.5982 41.0022 65.5743 41.5779C64.5503 42.1537 63.7311 42.9515 63.1167 43.9714C62.5194 44.9749 62.2208 46.1511 62.2208 47.5C62.2208 48.8325 62.5194 50.0087 63.1167 51.0286C63.7311 52.0485 64.5503 52.8463 65.5743 53.4221C66.5982 53.9978 67.7416 54.2857 69.0045 54.2857C69.892 54.2857 70.6855 54.1623 71.3852 53.9156C72.102 53.6524 72.7164 53.2905 73.2284 52.8299C73.7404 52.3693 74.1585 51.8429 74.4827 51.2506C74.8241 50.6584 75.0715 50.0251 75.2251 49.3506H69.2605Z" fill="white"/>
<path d="M96.1495 38.8636H98.3255V57L84.7579 43.2805V56.1364H82.582V38L96.1495 51.7195V38.8636Z" fill="white"/>
<path d="M117.351 46.661C117.077 46.3485 116.719 45.9866 116.275 45.5753C115.849 45.1476 115.465 44.6706 115.123 44.1442C114.799 43.6177 114.637 43.042 114.637 42.4169C114.637 41.6437 114.825 40.9693 115.2 40.3935C115.576 39.8177 116.088 39.3736 116.736 39.061C117.402 38.7485 118.161 38.5922 119.014 38.5922C119.919 38.5922 120.687 38.7732 121.318 39.1351C121.967 39.497 122.462 39.974 122.803 40.5662C123.144 41.142 123.315 41.7753 123.315 42.4662C123.315 42.8775 123.23 43.2805 123.059 43.6753C122.888 44.0701 122.641 44.4649 122.317 44.8597C121.993 45.2381 121.6 45.6082 121.139 45.9701C120.678 46.3156 120.149 46.661 119.552 47.0065C119.091 47.2697 118.588 47.5411 118.042 47.8208C117.496 48.084 116.975 48.3883 116.48 48.7338C116.002 49.0628 115.61 49.4493 115.303 49.8935C114.995 50.3377 114.842 50.8723 114.842 51.4974C114.842 52.1225 115.004 52.6654 115.328 53.126C115.67 53.5866 116.122 53.9403 116.685 54.187C117.248 54.4338 117.871 54.5571 118.554 54.5571C119.373 54.5571 120.158 54.3844 120.909 54.039C121.677 53.6935 122.411 53.2329 123.11 52.6571C123.81 52.0649 124.484 51.3987 125.133 50.6584C125.798 49.9182 126.438 49.145 127.053 48.339L128.64 49.3013C127.957 50.1567 127.257 51.0121 126.541 51.8675C125.824 52.7065 125.056 53.4632 124.237 54.1377C123.418 54.8121 122.53 55.355 121.574 55.7662C120.619 56.1775 119.569 56.3831 118.426 56.3831C117.453 56.3831 116.523 56.1939 115.635 55.8156C114.765 55.4208 114.048 54.8697 113.485 54.1623C112.939 53.4385 112.666 52.5913 112.666 51.6208C112.666 50.897 112.794 50.2636 113.05 49.7208C113.323 49.1779 113.664 48.7009 114.074 48.2896C114.501 47.8784 114.961 47.5247 115.456 47.2286C115.951 46.9325 116.438 46.6775 116.915 46.4636C117.393 46.2333 117.803 46.0277 118.144 45.8468C119.1 45.3203 119.851 44.7693 120.397 44.1935C120.96 43.6013 121.242 43.0255 121.242 42.4662C121.242 42.0385 121.148 41.6684 120.96 41.3558C120.789 41.0433 120.542 40.7965 120.218 40.6156C119.893 40.4346 119.492 40.3442 119.014 40.3442C118.315 40.3442 117.769 40.5333 117.376 40.9117C116.984 41.29 116.787 41.7918 116.787 42.4169C116.787 42.9762 117.018 43.5108 117.479 44.0208C117.939 44.5307 118.426 45.0736 118.938 45.6494L128.409 56.1364H125.952L117.351 46.661Z" fill="white"/>
<path d="M142.223 38.8636H144.399V56.1364H142.223V38.8636ZM147.599 56.1364H143.426V54.039H147.599C148.606 54.039 149.527 53.8909 150.363 53.5948C151.2 53.2823 151.916 52.8463 152.514 52.287C153.111 51.7113 153.572 51.0203 153.896 50.2143C154.22 49.4082 154.382 48.5035 154.382 47.5C154.382 46.4965 154.22 45.5918 153.896 44.7857C153.572 43.9797 153.111 43.297 152.514 42.7377C151.916 42.1619 151.2 41.726 150.363 41.4299C149.527 41.1173 148.606 40.961 147.599 40.961H143.426V38.8636H147.599C149.339 38.8636 150.884 39.2255 152.232 39.9494C153.58 40.6732 154.638 41.6848 155.406 42.9844C156.174 44.2675 156.558 45.7727 156.558 47.5C156.558 49.2273 156.174 50.7407 155.406 52.0403C154.638 53.3234 153.58 54.3268 152.232 55.0506C150.884 55.7745 149.339 56.1364 147.599 56.1364Z" fill="white"/>
<path d="M162.617 56.1364V54.1623H171.654V56.1364H162.617ZM162.617 40.8377V38.8636H171.654V40.8377H162.617ZM162.617 47.7468V45.7727H171.142V47.7468H162.617ZM161.414 38.8636H163.59V56.1364H161.414V38.8636Z" fill="white"/>
<path d="M183.68 52.2377L189.568 38.8636H192L183.68 57L175.361 38.8636H177.793L183.68 52.2377Z" fill="white"/>
<line y1="28" x2="192" y2="28" stroke="white" stroke-width="2"/>
</svg>
